Interstate-Ultra_Black_Italic.ufo
<glyph name="exclam" format="1">
  <advance width="360"/>
  <unicode hex="0021"/>
  <outline>
    <contour>
      <point x="358" y="456" type="line"/>
      <point x="270" y="272" type="line"/>
      <point x="92" y="272" type="line"/>
      <point x="70" y="456" type="line"/>
      <point x="113" y="700" type="line"/>
      <point x="401" y="700" type="line"/>
    </contour>
    <contour>
      <point x="146" y="-11" type="curve" smooth="yes"/>
      <point x="64" y="-11"/>
      <point x="-3" y="29"/>
      <point x="-3" y="105" type="curve" smooth="yes"/>
      <point x="-3" y="198"/>
      <point x="72" y="247"/>
      <point x="162" y="247" type="curve" smooth="yes"/>
      <point x="246" y="247"/>
      <point x="311" y="207"/>
      <point x="311" y="134" type="curve" smooth="yes"/>
      <point x="311" y="57"/>
      <point x="251" y="-11"/>
    </contour>
  </outline>
</glyph>
<glyph name="quotedbl" format="1">
  <advance width="660"/>
  <unicode hex="0022"/>
  <outline>
    <contour>
      <point x="713" y="700" type="line"/>
      <point x="611" y="373" type="line"/>
      <point x="414" y="373" type="line"/>
      <point x="428" y="700" type="line"/>
    </contour>
    <contour>
      <point x="388" y="700" type="line"/>
      <point x="286" y="373" type="line"/>
      <point x="89" y="373" type="line"/>
      <point x="103" y="700" type="line"/>
    </contour>
  </outline>
</glyph>
<glyph name="numbersign" format="1">
  <advance width="826"/>
  <unicode hex="0023"/>
  <outline>
    <contour>
      <point x="765" y="110" type="line"/>
      <point x="678" y="110" type="line"/>
      <point x="658" y="0" type="line"/>
      <point x="404" y="0" type="line"/>
      <point x="424" y="110" type="line"/>
      <point x="348" y="110" type="line"/>
      <point x="328" y="0" type="line"/>
      <point x="74" y="0" type="line"/>
      <point x="94" y="110" type="line"/>
      <point x="7" y="110" type="line"/>
      <point x="42" y="309" type="line"/>
      <point x="129" y="309" type="line"/>
      <point x="143" y="391" type="line"/>
      <point x="56" y="391" type="line"/>
      <point x="91" y="590" type="line"/>
      <point x="178" y="590" type="line"/>
      <point x="198" y="700" type="line"/>
      <point x="452" y="700" type="line"/>
      <point x="432" y="590" type="line"/>
      <point x="508" y="590" type="line"/>
      <point x="528" y="700" type="line"/>
      <point x="782" y="700" type="line"/>
      <point x="762" y="590" type="line"/>
      <point x="849" y="590" type="line"/>
      <point x="814" y="391" type="line"/>
      <point x="727" y="391" type="line"/>
      <point x="713" y="309" type="line"/>
      <point x="800" y="309" type="line"/>
    </contour>
    <contour>
      <point x="469" y="290" type="line"/>
      <point x="491" y="410" type="line"/>
      <point x="387" y="410" type="line"/>
      <point x="365" y="290" type="line"/>
    </contour>
  </outline>
</glyph>
<glyph name="dollar" format="1">
  <advance width="677"/>
  <unicode hex="0024"/>
  <outline>
    <contour>
      <point x="290" y="694" type="curve"/>
      <point x="309" y="800" type="line"/>
      <point x="555" y="800" type="line"/>
      <point x="533" y="679" type="line"/>
      <point x="615" y="664"/>
      <point x="667" y="642"/>
      <point x="718" y="609" type="curve"/>
      <point x="607" y="432" type="line"/>
      <point x="532" y="477"/>
      <point x="447" y="506"/>
      <point x="383" y="506" type="curve" smooth="yes"/>
      <point x="354" y="506"/>
      <point x="352" y="498"/>
      <point x="352" y="486" type="curve" smooth="yes"/>
      <point x="352" y="479"/>
      <point x="360" y="471"/>
      <point x="418" y="452" type="curve" smooth="yes"/>
      <point x="578" y="401"/>
      <point x="656" y="352"/>
      <point x="656" y="245" type="curve" smooth="yes"/>
      <point x="656" y="126"/>
      <point x="589" y="21"/>
      <point x="414" y="5" type="curve"/>
      <point x="395" y="-100" type="line"/>
      <point x="149" y="-100" type="line"/>
      <point x="171" y="21" type="line"/>
      <point x="99" y="33"/>
      <point x="45" y="52"/>
      <point x="-28" y="88" type="curve"/>
      <point x="78" y="267" type="line"/>
      <point x="192" y="213"/>
      <point x="287" y="192"/>
      <point x="338" y="192" type="curve" smooth="yes"/>
      <point x="365" y="192"/>
      <point x="371" y="202"/>
      <point x="371" y="211" type="curve" smooth="yes"/>
      <point x="371" y="219"/>
      <point x="361" y="225"/>
      <point x="291" y="247" type="curve" smooth="yes"/>
      <point x="128" y="300"/>
      <point x="61" y="355"/>
      <point x="61" y="447" type="curve" smooth="yes"/>
      <point x="61" y="557"/>
      <point x="117" y="673"/>
    </contour>
  </outline>
</glyph>
<glyph name="ampersand" format="1">
  <advance width="738"/>
  <unicode hex="0026"/>
  <outline>
    <contour>
      <point x="606" y="165" type="curve"/>
      <point x="719" y="0" type="line"/>
      <point x="438" y="0" type="line"/>
      <point x="415" y="33" type="line"/>
      <point x="355" y="6"/>
      <point x="292" y="-10"/>
      <point x="227" y="-10" type="curve" smooth="yes"/>
      <point x="97" y="-10"/>
      <point x="-8" y="46"/>
      <point x="-7" y="165" type="curve" smooth="yes"/>
      <point x="-7" y="258"/>
      <point x="54" y="337"/>
      <point x="166" y="394" type="curve"/>
      <point x="143" y="431"/>
      <point x="128" y="464"/>
      <point x="128" y="503" type="curve" smooth="yes"/>
      <point x="128" y="623"/>
      <point x="228" y="710"/>
      <point x="398" y="710" type="curve" smooth="yes"/>
      <point x="513" y="710"/>
      <point x="599" y="687"/>
      <point x="687" y="635" type="curve"/>
      <point x="568" y="462" type="line"/>
      <point x="524" y="488"/>
      <point x="468" y="511"/>
      <point x="427" y="511" type="curve" smooth="yes"/>
      <point x="406" y="511"/>
      <point x="399" y="497"/>
      <point x="399" y="483" type="curve" smooth="yes"/>
      <point x="399" y="474"/>
      <point x="402" y="464"/>
      <point x="412" y="450" type="curve" smooth="yes"/>
      <point x="497" y="326" type="line"/>
      <point x="523" y="358"/>
      <point x="548" y="392"/>
      <point x="569" y="422" type="curve"/>
      <point x="739" y="313" type="line"/>
      <point x="701" y="263"/>
      <point x="656" y="212"/>
    </contour>
    <contour>
      <point x="324" y="164" type="curve"/>
      <point x="260" y="256" type="line"/>
      <point x="243" y="245"/>
      <point x="222" y="222"/>
      <point x="222" y="195" type="curve" smooth="yes"/>
      <point x="222" y="174"/>
      <point x="238" y="153"/>
      <point x="279" y="153" type="curve" smooth="yes"/>
      <point x="293" y="153"/>
      <point x="308" y="157"/>
    </contour>
  </outline>
</glyph>
<glyph name="quotesingle" format="1">
  <advance width="350"/>
  <unicode hex="0027"/>
  <outline>
    <contour>
      <point x="402" y="700" type="line"/>
      <point x="300" y="373" type="line"/>
      <point x="88" y="373" type="line"/>
      <point x="102" y="700" type="line"/>
    </contour>
  </outline>
</glyph>
<glyph name="parenleft" format="1">
  <advance width="430"/>
  <unicode hex="0028"/>
  <outline>
    <contour>
      <point x="378" y="-34" type="curve"/>
      <point x="181" y="-111" type="line"/>
      <point x="90" y="-9"/>
      <point x="26" y="106"/>
      <point x="26" y="242" type="curve" smooth="yes"/>
      <point x="26" y="455"/>
      <point x="155" y="605"/>
      <point x="329" y="727" type="curve"/>
      <point x="494" y="626" type="line"/>
      <point x="370" y="497"/>
      <point x="313" y="358"/>
      <point x="313" y="205" type="curve" smooth="yes"/>
      <point x="313" y="125"/>
      <point x="334" y="48"/>
    </contour>
  </outline>
</glyph>
<glyph name="parenright" format="1">
  <advance width="430"/>
  <unicode hex="0029"/>
  <outline>
    <contour>
      <point x="71" y="643" type="curve"/>
      <point x="268" y="720" type="line"/>
      <point x="359" y="618"/>
      <point x="423" y="503"/>
      <point x="423" y="367" type="curve" smooth="yes"/>
      <point x="423" y="154"/>
      <point x="294" y="4"/>
      <point x="120" y="-118" type="curve"/>
      <point x="-45" y="-17" type="line"/>
      <point x="79" y="112"/>
      <point x="136" y="251"/>
      <point x="136" y="404" type="curve" smooth="yes"/>
      <point x="136" y="484"/>
      <point x="115" y="561"/>
    </contour>
  </outline>
</glyph>
<glyph name="asterisk" format="1">
  <advance width="550"/>
  <unicode hex="002A"/>
  <outline>
    <contour>
      <point x="576" y="387" type="line"/>
      <point x="485" y="233" type="line"/>
      <point x="370" y="327" type="line"/>
      <point x="394" y="178" type="line"/>
      <point x="214" y="178" type="line"/>
      <point x="238" y="327" type="line"/>
      <point x="123" y="233" type="line"/>
      <point x="32" y="387" type="line"/>
      <point x="185" y="439" type="line"/>
      <point x="32" y="491" type="line"/>
      <point x="123" y="645" type="line"/>
      <point x="238" y="551" type="line"/>
      <point x="214" y="700" type="line"/>
      <point x="394" y="700" type="line"/>
      <point x="370" y="551" type="line"/>
      <point x="485" y="645" type="line"/>
      <point x="576" y="491" type="line"/>
      <point x="423" y="439" type="line"/>
    </contour>
  </outline>
</glyph>
<glyph name="plus" format="1">
  <advance width="646"/>
  <unicode hex="002B"/>
  <outline>
    <contour>
      <point x="635" y="230" type="line"/>
      <point x="458" y="230" type="line"/>
      <point x="458" y="45" type="line"/>
      <point x="220" y="45" type="line"/>
      <point x="220" y="230" type="line"/>
      <point x="43" y="230" type="line"/>
      <point x="43" y="458" type="line"/>
      <point x="220" y="458" type="line"/>
      <point x="220" y="643" type="line"/>
      <point x="458" y="643" type="line"/>
      <point x="458" y="458" type="line"/>
      <point x="635" y="458" type="line"/>
    </contour>
  </outline>
</glyph>
<glyph name="comma" format="1">
  <advance width="360"/>
  <unicode hex="002C"/>
  <outline>
    <contour>
      <point x="347" y="277" type="line"/>
      <point x="132" y="-122" type="line"/>
      <point x="-48" y="-122" type="line"/>
      <point x="41" y="277" type="line"/>
    </contour>
  </outline>
</glyph>
<glyph name="hyphen" format="1">
  <advance width="488"/>
  <unicode hex="002D"/>
  <unicode hex="2010"/>
  <unicode hex="2011"/>
  <outline>
    <contour>
      <point x="451" y="228" type="line"/>
      <point x="23" y="228" type="line"/>
      <point x="67" y="476" type="line"/>
      <point x="495" y="476" type="line"/>
    </contour>
  </outline>
</glyph>
<glyph name="period" format="1">
  <advance width="360"/>
  <unicode hex="002E"/>
  <outline>
    <contour>
      <point x="146" y="-11" type="curve" smooth="yes"/>
      <point x="60" y="-11"/>
      <point x="1" y="42"/>
      <point x="1" y="119" type="curve" smooth="yes"/>
      <point x="1" y="211"/>
      <point x="63" y="295"/>
      <point x="174" y="295" type="curve" smooth="yes"/>
      <point x="258" y="295"/>
      <point x="317" y="244"/>
      <point x="317" y="168" type="curve" smooth="yes"/>
      <point x="317" y="65"/>
      <point x="245" y="-11"/>
    </contour>
  </outline>
</glyph>
<glyph name="slash" format="1">
  <advance width="570"/>
  <unicode hex="002F"/>
  <outline>
    <contour>
      <point x="703" y="790" type="line"/>
      <point x="164" y="-90" type="line"/>
      <point x="-103" y="-90" type="line"/>
      <point x="436" y="790" type="line"/>
    </contour>
  </outline>
</glyph>
<glyph name="zero" format="1">
  <advance width="734"/>
  <unicode hex="0030"/>
  <outline>
    <contour>
      <point x="353" y="-11" type="curve" smooth="yes"/>
      <point x="184" y="-11"/>
      <point x="32" y="75"/>
      <point x="32" y="286" type="curve" smooth="yes"/>
      <point x="32" y="520"/>
      <point x="172" y="711"/>
      <point x="416" y="711" type="curve" smooth="yes"/>
      <point x="584" y="711"/>
      <point x="734" y="619"/>
      <point x="734" y="413" type="curve" smooth="yes"/>
      <point x="734" y="144"/>
      <point x="551" y="-11"/>
    </contour>
    <contour>
      <point x="458" y="345" type="curve" smooth="yes"/>
      <point x="464" y="376"/>
      <point x="466" y="401"/>
      <point x="466" y="422" type="curve" smooth="yes"/>
      <point x="466" y="492"/>
      <point x="438" y="509"/>
      <point x="406" y="509" type="curve" smooth="yes"/>
      <point x="368" y="509"/>
      <point x="330" y="480"/>
      <point x="308" y="355" type="curve" smooth="yes"/>
      <point x="302" y="323"/>
      <point x="300" y="297"/>
      <point x="300" y="276" type="curve" smooth="yes"/>
      <point x="300" y="208"/>
      <point x="329" y="191"/>
      <point x="361" y="191" type="curve" smooth="yes"/>
      <point x="399" y="191"/>
      <point x="436" y="222"/>
    </contour>
  </outline>
</glyph>
<glyph name="one" format="1">
  <advance width="454"/>
  <unicode hex="0031"/>
  <outline>
    <contour>
      <point x="370" y="0" type="line"/>
      <point x="94" y="0" type="line"/>
      <point x="171" y="438" type="line"/>
      <point x="45" y="438" type="line"/>
      <point x="74" y="600" type="line"/>
      <point x="158" y="605"/>
      <point x="219" y="642"/>
      <point x="251" y="700" type="curve"/>
      <point x="493" y="700" type="line"/>
    </contour>
  </outline>
</glyph>
<glyph name="two" format="1">
  <advance width="696"/>
  <unicode hex="0032"/>
  <outline>
    <contour>
      <point x="624" y="0" type="line"/>
      <point x="-24" y="0" type="line"/>
      <point x="30" y="266"/>
      <point x="163" y="378"/>
      <point x="395" y="456" type="curve" smooth="yes"/>
      <point x="440" y="471"/>
      <point x="447" y="476"/>
      <point x="447" y="490" type="curve" smooth="yes"/>
      <point x="447" y="501"/>
      <point x="427" y="505"/>
      <point x="395" y="505" type="curve" smooth="yes"/>
      <point x="325" y="505"/>
      <point x="240" y="490"/>
      <point x="153" y="445" type="curve"/>
      <point x="82" y="636" type="line"/>
      <point x="176" y="682"/>
      <point x="272" y="711"/>
      <point x="409" y="711" type="curve" smooth="yes"/>
      <point x="606" y="711"/>
      <point x="711" y="655"/>
      <point x="711" y="534" type="curve" smooth="yes"/>
      <point x="711" y="406"/>
      <point x="659" y="358"/>
      <point x="448" y="273" type="curve" smooth="yes"/>
      <point x="377" y="244"/>
      <point x="354" y="227"/>
      <point x="325" y="201" type="curve"/>
      <point x="659" y="201" type="line"/>
    </contour>
  </outline>
</glyph>
<glyph name="three" format="1">
  <advance width="681"/>
  <unicode hex="0033"/>
  <outline>
    <contour>
      <point x="358" y="-11" type="curve" smooth="yes"/>
      <point x="213" y="-11"/>
      <point x="74" y="23"/>
      <point x="-25" y="107" type="curve"/>
      <point x="115" y="271" type="line"/>
      <point x="184" y="220"/>
      <point x="264" y="195"/>
      <point x="343" y="195" type="curve" smooth="yes"/>
      <point x="393" y="195"/>
      <point x="412" y="209"/>
      <point x="412" y="232" type="curve" smooth="yes"/>
      <point x="412" y="250"/>
      <point x="396" y="262"/>
      <point x="350" y="262" type="curve" smooth="yes"/>
      <point x="216" y="262" type="line"/>
      <point x="248" y="446" type="line"/>
      <point x="365" y="446" type="line" smooth="yes"/>
      <point x="407" y="446"/>
      <point x="425" y="451"/>
      <point x="425" y="475" type="curve" smooth="yes"/>
      <point x="425" y="498"/>
      <point x="390" y="510"/>
      <point x="340" y="510" type="curve" smooth="yes"/>
      <point x="286" y="509"/>
      <point x="230" y="496"/>
      <point x="163" y="467" type="curve"/>
      <point x="83" y="641" type="line"/>
      <point x="173" y="687"/>
      <point x="259" y="711"/>
      <point x="385" y="711" type="curve" smooth="yes"/>
      <point x="586" y="711"/>
      <point x="697" y="647"/>
      <point x="697" y="531" type="curve" smooth="yes"/>
      <point x="697" y="443"/>
      <point x="652" y="387"/>
      <point x="571" y="360" type="curve"/>
      <point x="629" y="336"/>
      <point x="665" y="296"/>
      <point x="665" y="232" type="curve" smooth="yes"/>
      <point x="665" y="100"/>
      <point x="568" y="-11"/>
    </contour>
  </outline>
</glyph>
<glyph name="four" format="1">
  <advance width="737"/>
  <unicode hex="0034"/>
  <outline>
    <contour>
      <point x="701" y="121" type="line"/>
      <point x="611" y="121" type="line"/>
      <point x="590" y="0" type="line"/>
      <point x="350" y="0" type="line"/>
      <point x="372" y="125" type="line"/>
      <point x="-13" y="125" type="line"/>
      <point x="15" y="285" type="line"/>
      <point x="478" y="700" type="line"/>
      <point x="714" y="700" type="line"/>
      <point x="646" y="317" type="line"/>
      <point x="736" y="317" type="line"/>
    </contour>
    <contour>
      <point x="446" y="451" type="curve"/>
      <point x="428" y="430"/>
      <point x="414" y="415"/>
      <point x="389" y="390" type="curve" smooth="yes"/>
      <point x="365" y="366" type="line" smooth="yes"/>
      <point x="338" y="339"/>
      <point x="321" y="324"/>
      <point x="293" y="301" type="curve"/>
      <point x="315" y="303"/>
      <point x="340" y="303"/>
      <point x="374" y="303" type="curve" smooth="yes"/>
      <point x="419" y="303" type="line"/>
      <point x="431" y="375" type="line" smooth="yes"/>
      <point x="435" y="401"/>
      <point x="440" y="429"/>
    </contour>
  </outline>
</glyph>
<glyph name="five" format="1">
  <advance width="707"/>
  <unicode hex="0035"/>
  <outline>
    <contour>
      <point x="342" y="-11" type="curve" smooth="yes"/>
      <point x="174" y="-11"/>
      <point x="61" y="41"/>
      <point x="-28" y="99" type="curve"/>
      <point x="102" y="274" type="line"/>
      <point x="177" y="232"/>
      <point x="274" y="192"/>
      <point x="357" y="192" type="curve" smooth="yes"/>
      <point x="420" y="192"/>
      <point x="435" y="217"/>
      <point x="435" y="247" type="curve" smooth="yes"/>
      <point x="435" y="275"/>
      <point x="410" y="289"/>
      <point x="349" y="289" type="curve" smooth="yes"/>
      <point x="300" y="289"/>
      <point x="262" y="275"/>
      <point x="232" y="262" type="curve"/>
      <point x="60" y="320" type="line"/>
      <point x="156" y="700" type="line"/>
      <point x="720" y="700" type="line"/>
      <point x="686" y="509" type="line"/>
      <point x="314" y="509" type="line"/>
      <point x="304" y="465" type="line"/>
      <point x="331" y="471"/>
      <point x="367" y="479"/>
      <point x="421" y="479" type="curve" smooth="yes"/>
      <point x="596" y="479"/>
      <point x="692" y="406"/>
      <point x="692" y="281" type="curve" smooth="yes"/>
      <point x="692" y="112"/>
      <point x="563" y="-11"/>
    </contour>
  </outline>
</glyph>
<glyph name="six" format="1">
  <advance width="692"/>
  <unicode hex="0036"/>
  <outline>
    <contour>
      <point x="337" y="-12" type="curve" smooth="yes"/>
      <point x="138" y="-12"/>
      <point x="20" y="74"/>
      <point x="20" y="237" type="curve" smooth="yes"/>
      <point x="20" y="448"/>
      <point x="191" y="731"/>
      <point x="666" y="699" type="curve"/>
      <point x="632" y="509" type="line"/>
      <point x="466" y="521"/>
      <point x="362" y="473"/>
      <point x="306" y="434" type="curve"/>
      <point x="340" y="445"/>
      <point x="381" y="449"/>
      <point x="417" y="449" type="curve" smooth="yes"/>
      <point x="572" y="449"/>
      <point x="682" y="397"/>
      <point x="682" y="271" type="curve" smooth="yes"/>
      <point x="682" y="100"/>
      <point x="557" y="-12"/>
    </contour>
    <contour>
      <point x="447" y="233" type="curve" smooth="yes"/>
      <point x="447" y="271"/>
      <point x="406" y="291"/>
      <point x="346" y="291" type="curve" smooth="yes"/>
      <point x="287" y="291"/>
      <point x="254" y="264"/>
      <point x="253" y="223" type="curve" smooth="yes"/>
      <point x="253" y="184"/>
      <point x="288" y="163"/>
      <point x="352" y="163" type="curve" smooth="yes"/>
      <point x="424" y="163"/>
      <point x="447" y="198"/>
    </contour>
  </outline>
</glyph>
<glyph name="seven" format="1">
  <advance width="688"/>
  <unicode hex="0037"/>
  <outline>
    <contour>
      <point x="715" y="507" type="line"/>
      <point x="483" y="344"/>
      <point x="425" y="232"/>
      <point x="382" y="0" type="curve"/>
      <point x="112" y="0" type="line"/>
      <point x="143" y="219"/>
      <point x="238" y="379"/>
      <point x="367" y="491" type="curve"/>
      <point x="57" y="491" type="line"/>
      <point x="94" y="700" type="line"/>
      <point x="749" y="700" type="line"/>
    </contour>
  </outline>
</glyph>
<glyph name="eight" format="1">
  <advance width="730"/>
  <unicode hex="0038"/>
  <outline>
    <contour>
      <point x="372" y="-11" type="curve" smooth="yes"/>
      <point x="144" y="-11"/>
      <point x="5" y="78"/>
      <point x="5" y="202" type="curve" smooth="yes"/>
      <point x="5" y="316"/>
      <point x="86" y="372"/>
      <point x="150" y="395" type="curve"/>
      <point x="114" y="419"/>
      <point x="88" y="459"/>
      <point x="88" y="508" type="curve" smooth="yes"/>
      <point x="88" y="636"/>
      <point x="206" y="712"/>
      <point x="394" y="712" type="curve" smooth="yes"/>
      <point x="600" y="712"/>
      <point x="728" y="646"/>
      <point x="728" y="520" type="curve" smooth="yes"/>
      <point x="728" y="439"/>
      <point x="678" y="391"/>
      <point x="616" y="362" type="curve"/>
      <point x="670" y="330"/>
      <point x="705" y="292"/>
      <point x="705" y="221" type="curve" smooth="yes"/>
      <point x="705" y="98"/>
      <point x="588" y="-11"/>
    </contour>
    <contour>
      <point x="481" y="499" type="curve" smooth="yes"/>
      <point x="481" y="529"/>
      <point x="456" y="549"/>
      <point x="404" y="549" type="curve" smooth="yes"/>
      <point x="351" y="549"/>
      <point x="327" y="521"/>
      <point x="327" y="492" type="curve" smooth="yes"/>
      <point x="327" y="464"/>
      <point x="353" y="443"/>
      <point x="409" y="443" type="curve" smooth="yes"/>
      <point x="458" y="443"/>
      <point x="481" y="470"/>
    </contour>
    <contour>
      <point x="459" y="228" type="curve" smooth="yes"/>
      <point x="459" y="268"/>
      <point x="412" y="290"/>
      <point x="354" y="290" type="curve" smooth="yes"/>
      <point x="283" y="290"/>
      <point x="255" y="259"/>
      <point x="255" y="224" type="curve" smooth="yes"/>
      <point x="255" y="190"/>
      <point x="292" y="162"/>
      <point x="363" y="162" type="curve" smooth="yes"/>
      <point x="428" y="162"/>
      <point x="459" y="192"/>
    </contour>
  </outline>
</glyph>
<glyph name="nine" format="1">
  <advance width="692"/>
  <unicode hex="0039"/>
  <outline>
    <contour>
      <point x="388" y="711" type="curve" smooth="yes"/>
      <point x="587" y="711"/>
      <point x="705" y="625"/>
      <point x="705" y="462" type="curve" smooth="yes"/>
      <point x="705" y="251"/>
      <point x="534" y="-32"/>
      <point x="59" y="0" type="curve"/>
      <point x="93" y="190" type="line"/>
      <point x="259" y="178"/>
      <point x="363" y="226"/>
      <point x="419" y="265" type="curve"/>
      <point x="385" y="254"/>
      <point x="344" y="250"/>
      <point x="308" y="250" type="curve" smooth="yes"/>
      <point x="153" y="250"/>
      <point x="43" y="302"/>
      <point x="43" y="428" type="curve" smooth="yes"/>
      <point x="43" y="599"/>
      <point x="168" y="711"/>
    </contour>
    <contour>
      <point x="278" y="466" type="curve" smooth="yes"/>
      <point x="278" y="428"/>
      <point x="319" y="408"/>
      <point x="379" y="408" type="curve" smooth="yes"/>
      <point x="438" y="408"/>
      <point x="472" y="435"/>
      <point x="472" y="476" type="curve" smooth="yes"/>
      <point x="472" y="515"/>
      <point x="437" y="536"/>
      <point x="373" y="536" type="curve" smooth="yes"/>
      <point x="301" y="536"/>
      <point x="278" y="501"/>
    </contour>
  </outline>
</glyph>
<glyph name="colon" format="1">
  <advance width="360"/>
  <unicode hex="003A"/>
  <outline>
    <contour>
      <point x="197" y="272" type="curve" smooth="yes"/>
      <point x="115" y="272"/>
      <point x="48" y="315"/>
      <point x="48" y="391" type="curve" smooth="yes"/>
      <point x="48" y="484"/>
      <point x="123" y="536"/>
      <point x="213" y="536" type="curve" smooth="yes"/>
      <point x="297" y="536"/>
      <point x="362" y="493"/>
      <point x="362" y="420" type="curve" smooth="yes"/>
      <point x="362" y="343"/>
      <point x="302" y="272"/>
    </contour>
    <contour>
      <point x="146" y="-11" type="curve" smooth="yes"/>
      <point x="64" y="-11"/>
      <point x="-3" y="32"/>
      <point x="-3" y="108" type="curve" smooth="yes"/>
      <point x="-3" y="201"/>
      <point x="72" y="253"/>
      <point x="162" y="253" type="curve" smooth="yes"/>
      <point x="246" y="253"/>
      <point x="311" y="210"/>
      <point x="311" y="137" type="curve" smooth="yes"/>
      <point x="311" y="60"/>
      <point x="251" y="-11"/>
    </contour>
  </outline>
</glyph>
<glyph name="semicolon" format="1">
  <advance width="360"/>
  <unicode hex="003B"/>
  <outline>
    <contour>
      <point x="197" y="272" type="curve" smooth="yes"/>
      <point x="115" y="272"/>
      <point x="48" y="315"/>
      <point x="48" y="391" type="curve" smooth="yes"/>
      <point x="48" y="484"/>
      <point x="123" y="536"/>
      <point x="213" y="536" type="curve" smooth="yes"/>
      <point x="297" y="536"/>
      <point x="362" y="493"/>
      <point x="362" y="420" type="curve" smooth="yes"/>
      <point x="362" y="343"/>
      <point x="302" y="272"/>
    </contour>
    <contour>
      <point x="329" y="247" type="line"/>
      <point x="131" y="-122" type="line"/>
      <point x="-49" y="-122" type="line"/>
      <point x="31" y="247" type="line"/>
    </contour>
  </outline>
</glyph>
<glyph name="less" format="1">
  <advance width="515"/>
  <unicode hex="003C"/>
  <outline>
    <contour>
      <point x="499" y="-11" type="line"/>
      <point x="49" y="264" type="line"/>
      <point x="49" y="436" type="line"/>
      <point x="499" y="711" type="line"/>
      <point x="499" y="467" type="line"/>
      <point x="284" y="352" type="line"/>
      <point x="499" y="237" type="line"/>
    </contour>
  </outline>
</glyph>
<glyph name="equal" format="1">
  <advance width="646"/>
  <unicode hex="003D"/>
  <outline>
    <contour>
      <point x="621" y="380" type="line"/>
      <point x="55" y="380" type="line"/>
      <point x="55" y="582" type="line"/>
      <point x="621" y="582" type="line"/>
    </contour>
    <contour>
      <point x="621" y="106" type="line"/>
      <point x="55" y="106" type="line"/>
      <point x="55" y="308" type="line"/>
      <point x="621" y="308" type="line"/>
    </contour>
  </outline>
</glyph>
<glyph name="greater" format="1">
  <advance width="515"/>
  <unicode hex="003E"/>
  <outline>
    <contour>
      <point x="496" y="264" type="line"/>
      <point x="46" y="-11" type="line"/>
      <point x="46" y="237" type="line"/>
      <point x="261" y="352" type="line"/>
      <point x="46" y="467" type="line"/>
      <point x="46" y="711" type="line"/>
      <point x="496" y="436" type="line"/>
    </contour>
  </outline>
</glyph>
<glyph name="question" format="1">
  <advance width="608"/>
  <unicode hex="003F"/>
  <outline>
    <contour>
      <point x="396" y="272" type="curve"/>
      <point x="160" y="272" type="line"/>
      <point x="170" y="377"/>
      <point x="224" y="432"/>
      <point x="334" y="468" type="curve" smooth="yes"/>
      <point x="376" y="482"/>
      <point x="379" y="486"/>
      <point x="379" y="495" type="curve" smooth="yes"/>
      <point x="379" y="506"/>
      <point x="370" y="510"/>
      <point x="332" y="510" type="curve" smooth="yes"/>
      <point x="259" y="510"/>
      <point x="171" y="483"/>
      <point x="128" y="461" type="curve"/>
      <point x="57" y="641" type="line"/>
      <point x="157" y="689"/>
      <point x="254" y="710"/>
      <point x="357" y="710" type="curve" smooth="yes"/>
      <point x="520" y="710"/>
      <point x="650" y="661"/>
      <point x="650" y="547" type="curve" smooth="yes"/>
      <point x="650" y="424"/>
      <point x="575" y="381"/>
      <point x="509" y="352" type="curve" smooth="yes"/>
      <point x="435" y="319"/>
      <point x="410" y="313"/>
    </contour>
    <contour>
      <point x="240" y="-11" type="curve" smooth="yes"/>
      <point x="158" y="-11"/>
      <point x="91" y="29"/>
      <point x="91" y="105" type="curve" smooth="yes"/>
      <point x="91" y="198"/>
      <point x="166" y="247"/>
      <point x="256" y="247" type="curve" smooth="yes"/>
      <point x="340" y="247"/>
      <point x="405" y="207"/>
      <point x="405" y="134" type="curve" smooth="yes"/>
      <point x="405" y="57"/>
      <point x="345" y="-11"/>
    </contour>
  </outline>
</glyph>
<glyph name="at" format="1">
  <advance width="836"/>
  <unicode hex="0040"/>
  <outline>
    <contour>
      <point x="820" y="360" type="curve" smooth="yes"/>
      <point x="820" y="216"/>
      <point x="738" y="153"/>
      <point x="633" y="153" type="curve" smooth="yes"/>
      <point x="565" y="153"/>
      <point x="531" y="165"/>
      <point x="496" y="187" type="curve"/>
      <point x="453" y="166"/>
      <point x="409" y="155"/>
      <point x="357" y="155" type="curve" smooth="yes"/>
      <point x="279" y="155"/>
      <point x="234" y="204"/>
      <point x="234" y="282" type="curve" smooth="yes"/>
      <point x="234" y="362"/>
      <point x="295" y="404"/>
      <point x="369" y="404" type="curve" smooth="yes"/>
      <point x="406" y="404"/>
      <point x="432" y="400"/>
      <point x="459" y="389" type="curve"/>
      <point x="459" y="395" type="line" smooth="yes"/>
      <point x="459" y="430"/>
      <point x="446" y="440"/>
      <point x="413" y="440" type="curve" smooth="yes"/>
      <point x="371" y="440"/>
      <point x="337" y="435"/>
      <point x="291" y="417" type="curve"/>
      <point x="261" y="524" type="line"/>
      <point x="311" y="543"/>
      <point x="380" y="554"/>
      <point x="452" y="554" type="curve" smooth="yes"/>
      <point x="577" y="554"/>
      <point x="633" y="518"/>
      <point x="633" y="402" type="curve" smooth="yes"/>
      <point x="633" y="259" type="line" smooth="yes"/>
      <point x="633" y="238"/>
      <point x="638" y="221"/>
      <point x="658" y="221" type="curve" smooth="yes"/>
      <point x="709" y="221"/>
      <point x="743" y="266"/>
      <point x="743" y="361" type="curve" smooth="yes"/>
      <point x="743" y="532"/>
      <point x="613" y="640"/>
      <point x="438" y="640" type="curve" smooth="yes"/>
      <point x="263" y="640"/>
      <point x="135" y="538"/>
      <point x="135" y="351" type="curve" smooth="yes"/>
      <point x="135" y="164"/>
      <point x="265" y="60"/>
      <point x="440" y="60" type="curve" smooth="yes"/>
      <point x="490" y="60"/>
      <point x="529" y="69"/>
      <point x="566" y="87" type="curve"/>
      <point x="594" y="22" type="line"/>
      <point x="544" y="-1"/>
      <point x="493" y="-11"/>
      <point x="438" y="-11" type="curve" smooth="yes"/>
      <point x="223" y="-11"/>
      <point x="58" y="134"/>
      <point x="58" y="349" type="curve" smooth="yes"/>
      <point x="58" y="564"/>
      <point x="225" y="711"/>
      <point x="440" y="711" type="curve" smooth="yes"/>
      <point x="655" y="711"/>
      <point x="820" y="564"/>
    </contour>
    <contour>
      <point x="459" y="261" type="curve"/>
      <point x="459" y="312" type="line"/>
      <point x="449" y="316"/>
      <point x="438" y="319"/>
      <point x="428" y="319" type="curve" smooth="yes"/>
      <point x="410" y="319"/>
      <point x="400" y="308"/>
      <point x="400" y="286" type="curve" smooth="yes"/>
      <point x="400" y="265"/>
      <point x="410" y="254"/>
      <point x="428" y="254" type="curve" smooth="yes"/>
      <point x="438" y="254"/>
      <point x="449" y="256"/>
    </contour>
  </outline>
</glyph>
<glyph name="A" format="1">
  <advance width="760"/>
  <unicode hex="0041"/>
  <outline>
    <contour>
      <point x="708" y="0" type="line"/>
      <point x="437" y="0" type="line"/>
      <point x="430" y="81" type="line"/>
      <point x="264" y="81" type="line"/>
      <point x="229" y="0" type="line"/>
      <point x="-40" y="0" type="line"/>
      <point x="306" y="700" type="line"/>
      <point x="610" y="700" type="line"/>
    </contour>
    <contour>
      <point x="416" y="264" type="line"/>
      <point x="413" y="370"/>
      <point x="413" y="421"/>
      <point x="416" y="471" type="curve"/>
      <point x="401" y="422"/>
      <point x="373" y="343"/>
      <point x="343" y="264" type="curve"/>
    </contour>
  </outline>
</glyph>
<glyph name="B" format="1">
  <advance width="714"/>
  <unicode hex="0042"/>
  <outline>
    <contour>
      <point x="387" y="0" type="curve" smooth="yes"/>
      <point x="-8" y="0" type="line"/>
      <point x="115" y="700" type="line"/>
      <point x="469" y="700" type="line" smooth="yes"/>
      <point x="665" y="700"/>
      <point x="742" y="626"/>
      <point x="742" y="539" type="curve" smooth="yes"/>
      <point x="742" y="433"/>
      <point x="667" y="387"/>
      <point x="605" y="365" type="curve"/>
      <point x="650" y="349"/>
      <point x="698" y="308"/>
      <point x="698" y="228" type="curve" smooth="yes"/>
      <point x="698" y="88"/>
      <point x="602" y="0"/>
    </contour>
    <contour>
      <point x="465" y="482" type="curve" smooth="yes"/>
      <point x="465" y="508"/>
      <point x="445" y="524"/>
      <point x="408" y="524" type="curve" smooth="yes"/>
      <point x="360" y="524" type="line"/>
      <point x="343" y="426" type="line"/>
      <point x="405" y="426" type="line" smooth="yes"/>
      <point x="440" y="426"/>
      <point x="465" y="446"/>
    </contour>
    <contour>
      <point x="421" y="231" type="curve" smooth="yes"/>
      <point x="421" y="256"/>
      <point x="401" y="274"/>
      <point x="367" y="274" type="curve" smooth="yes"/>
      <point x="316" y="274" type="line"/>
      <point x="299" y="176" type="line"/>
      <point x="359" y="176" type="line" smooth="yes"/>
      <point x="397" y="176"/>
      <point x="421" y="195"/>
    </contour>
  </outline>
</glyph>
<glyph name="C" format="1">
  <advance width="701"/>
  <unicode hex="0043"/>
  <outline>
    <contour>
      <point x="687" y="201" type="line"/>
      <point x="637" y="93"/>
      <point x="554" y="-11"/>
      <point x="370" y="-11" type="curve" smooth="yes"/>
      <point x="184" y="-11"/>
      <point x="31" y="75"/>
      <point x="31" y="283" type="curve" smooth="yes"/>
      <point x="31" y="511"/>
      <point x="156" y="710"/>
      <point x="424" y="710" type="curve" smooth="yes"/>
      <point x="643" y="710"/>
      <point x="723" y="605"/>
      <point x="719" y="420" type="curve"/>
      <point x="463" y="373" type="line"/>
      <point x="471" y="480"/>
      <point x="455" y="508"/>
      <point x="413" y="508" type="curve" smooth="yes"/>
      <point x="348" y="508"/>
      <point x="312" y="373"/>
      <point x="312" y="279" type="curve" smooth="yes"/>
      <point x="312" y="227"/>
      <point x="329" y="192"/>
      <point x="366" y="192" type="curve" smooth="yes"/>
      <point x="406" y="192"/>
      <point x="433" y="229"/>
      <point x="459" y="295" type="curve"/>
    </contour>
  </outline>
</glyph>
<glyph name="D" format="1">
  <advance width="729"/>
  <unicode hex="0044"/>
  <outline>
    <contour>
      <point x="322" y="0" type="curve" smooth="yes"/>
      <point x="-8" y="0" type="line"/>
      <point x="116" y="700" type="line"/>
      <point x="400" y="700" type="line" smooth="yes"/>
      <point x="600" y="700"/>
      <point x="730" y="615"/>
      <point x="730" y="430" type="curve" smooth="yes"/>
      <point x="730" y="108"/>
      <point x="523" y="0"/>
    </contour>
    <contour>
      <point x="446" y="340" type="curve" smooth="yes"/>
      <point x="450" y="364"/>
      <point x="452" y="384"/>
      <point x="452" y="402" type="curve" smooth="yes"/>
      <point x="452" y="471"/>
      <point x="422" y="498"/>
      <point x="368" y="498" type="curve" smooth="yes"/>
      <point x="354" y="498" type="line"/>
      <point x="302" y="202" type="line"/>
      <point x="324" y="202" type="line" smooth="yes"/>
      <point x="386" y="202"/>
      <point x="426" y="224"/>
    </contour>
  </outline>
</glyph>
<glyph name="E" format="1">
  <advance width="665"/>
  <unicode hex="0045"/>
  <outline>
    <contour>
      <point x="592" y="0" type="line"/>
      <point x="-8" y="0" type="line"/>
      <point x="116" y="700" type="line"/>
      <point x="714" y="700" type="line"/>
      <point x="680" y="506" type="line"/>
      <point x="357" y="506" type="line"/>
      <point x="346" y="446" type="line"/>
      <point x="576" y="446" type="line"/>
      <point x="542" y="255" type="line"/>
      <point x="312" y="255" type="line"/>
      <point x="301" y="194" type="line"/>
      <point x="626" y="194" type="line"/>
    </contour>
  </outline>
</glyph>
<glyph name="F" format="1">
  <advance width="654"/>
  <unicode hex="0046"/>
  <outline>
    <contour>
      <point x="676" y="486" type="line"/>
      <point x="362" y="486" type="line"/>
      <point x="350" y="421" type="line"/>
      <point x="572" y="421" type="line"/>
      <point x="536" y="214" type="line"/>
      <point x="314" y="214" type="line"/>
      <point x="276" y="0" type="line"/>
      <point x="-8" y="0" type="line"/>
      <point x="115" y="700" type="line"/>
      <point x="713" y="700" type="line"/>
    </contour>
  </outline>
</glyph>
<glyph name="G" format="1">
  <advance width="754"/>
  <unicode hex="0047"/>
  <outline>
    <contour>
      <point x="456" y="247" type="curve"/>
      <point x="369" y="247" type="line"/>
      <point x="396" y="399" type="line"/>
      <point x="753" y="399" type="line"/>
      <point x="747" y="359" type="line" smooth="yes"/>
      <point x="713" y="130"/>
      <point x="615" y="-11"/>
      <point x="375" y="-11" type="curve" smooth="yes"/>
      <point x="169" y="-11"/>
      <point x="31" y="89"/>
      <point x="31" y="290" type="curve" smooth="yes"/>
      <point x="31" y="510"/>
      <point x="154" y="711"/>
      <point x="424" y="711" type="curve" smooth="yes"/>
      <point x="617" y="711"/>
      <point x="730" y="649"/>
      <point x="757" y="469" type="curve"/>
      <point x="505" y="415" type="line"/>
      <point x="498" y="482"/>
      <point x="466" y="513"/>
      <point x="422" y="513" type="curve" smooth="yes"/>
      <point x="333" y="513"/>
      <point x="311" y="382"/>
      <point x="311" y="276" type="curve" smooth="yes"/>
      <point x="311" y="204"/>
      <point x="340" y="182"/>
      <point x="382" y="182" type="curve" smooth="yes"/>
      <point x="422" y="182"/>
      <point x="441" y="207"/>
    </contour>
  </outline>
</glyph>
<glyph name="H" format="1">
  <advance width="763"/>
  <unicode hex="0048"/>
  <outline>
    <contour>
      <point x="679" y="0" type="line"/>
      <point x="391" y="0" type="line"/>
      <point x="434" y="241" type="line"/>
      <point x="323" y="241" type="line"/>
      <point x="280" y="0" type="line"/>
      <point x="-8" y="0" type="line"/>
      <point x="116" y="700" type="line"/>
      <point x="404" y="700" type="line"/>
      <point x="363" y="469" type="line"/>
      <point x="474" y="469" type="line"/>
      <point x="515" y="700" type="line"/>
      <point x="803" y="700" type="line"/>
    </contour>
  </outline>
</glyph>
<glyph name="I" format="1">
  <advance width="364"/>
  <unicode hex="0049"/>
  <outline>
    <contour>
      <point x="280" y="0" type="line"/>
      <point x="-8" y="0" type="line"/>
      <point x="116" y="700" type="line"/>
      <point x="404" y="700" type="line"/>
    </contour>
  </outline>
</glyph>
<glyph name="J" format="1">
  <advance width="720"/>
  <unicode hex="004A"/>
  <outline>
    <contour>
      <point x="693" y="282" type="line" smooth="yes"/>
      <point x="658" y="80"/>
      <point x="554" y="-11"/>
      <point x="344" y="-11" type="curve" smooth="yes"/>
      <point x="135" y="-11"/>
      <point x="21" y="78"/>
      <point x="24" y="293" type="curve"/>
      <point x="300" y="340" type="line"/>
      <point x="302" y="226"/>
      <point x="318" y="209"/>
      <point x="353" y="209" type="curve" smooth="yes"/>
      <point x="383" y="209"/>
      <point x="395" y="232"/>
      <point x="404" y="285" type="curve" smooth="yes"/>
      <point x="478" y="700" type="line"/>
      <point x="766" y="700" type="line"/>
    </contour>
  </outline>
</glyph>
<glyph name="K" format="1">
  <advance width="769"/>
  <unicode hex="004B"/>
  <outline>
    <contour>
      <point x="336" y="217" type="line"/>
      <point x="314" y="190" type="line"/>
      <point x="281" y="0" type="line"/>
      <point x="-7" y="0" type="line"/>
      <point x="116" y="700" type="line"/>
      <point x="404" y="700" type="line"/>
      <point x="389" y="615" type="line" smooth="yes"/>
      <point x="384" y="588"/>
      <point x="375" y="541"/>
      <point x="367" y="518" type="curve"/>
      <point x="388" y="554"/>
      <point x="429" y="611"/>
      <point x="475" y="662" type="curve" smooth="yes"/>
      <point x="509" y="700" type="line"/>
      <point x="846" y="700" type="line"/>
      <point x="576" y="422" type="line"/>
      <point x="729" y="0" type="line"/>
      <point x="394" y="0" type="line"/>
    </contour>
  </outline>
</glyph>
<glyph name="L" format="1">
  <advance width="611"/>
  <unicode hex="004C"/>
  <outline>
    <contour>
      <point x="541" y="0" type="line"/>
      <point x="-8" y="0" type="line"/>
      <point x="115" y="700" type="line"/>
      <point x="403" y="700" type="line"/>
      <point x="319" y="224" type="line"/>
      <point x="580" y="224" type="line"/>
    </contour>
  </outline>
</glyph>
<glyph name="M" format="1">
  <advance width="862"/>
  <unicode hex="004D"/>
  <outline>
    <contour>
      <point x="778" y="0" type="line"/>
      <point x="522" y="0" type="line"/>
      <point x="569" y="269" type="line" smooth="yes"/>
      <point x="572" y="288"/>
      <point x="582" y="327"/>
      <point x="587" y="353" type="curve"/>
      <point x="570" y="304"/>
      <point x="540" y="234"/>
      <point x="514" y="178" type="curve" smooth="yes"/>
      <point x="430" y="0" type="line"/>
      <point x="340" y="0" type="line"/>
      <point x="318" y="178" type="line" smooth="yes"/>
      <point x="311" y="234"/>
      <point x="306" y="304"/>
      <point x="305" y="353" type="curve"/>
      <point x="302" y="327"/>
      <point x="298" y="288"/>
      <point x="295" y="269" type="curve" smooth="yes"/>
      <point x="248" y="0" type="line"/>
      <point x="-8" y="0" type="line"/>
      <point x="115" y="700" type="line"/>
      <point x="426" y="700" type="line"/>
      <point x="442" y="577" type="line" smooth="yes"/>
      <point x="452" y="500"/>
      <point x="462" y="438"/>
      <point x="458" y="388" type="curve"/>
      <point x="471" y="438"/>
      <point x="498" y="500"/>
      <point x="534" y="577" type="curve" smooth="yes"/>
      <point x="592" y="700" type="line"/>
      <point x="901" y="700" type="line"/>
    </contour>
  </outline>
</glyph>
<glyph name="N" format="1">
  <advance width="752"/>
  <unicode hex="004E"/>
  <outline>
    <contour>
      <point x="668" y="0" type="line"/>
      <point x="415" y="0" type="line"/>
      <point x="363" y="134" type="line" smooth="yes"/>
      <point x="341" y="190"/>
      <point x="316" y="260"/>
      <point x="307" y="309" type="curve"/>
      <point x="305" y="283"/>
      <point x="300" y="244"/>
      <point x="297" y="225" type="curve" smooth="yes"/>
      <point x="258" y="0" type="line"/>
      <point x="-8" y="0" type="line"/>
      <point x="115" y="700" type="line"/>
      <point x="378" y="700" type="line"/>
      <point x="417" y="608" type="line" smooth="yes"/>
      <point x="436" y="563"/>
      <point x="470" y="455"/>
      <point x="480" y="411" type="curve"/>
      <point x="482" y="437"/>
      <point x="486" y="476"/>
      <point x="489" y="495" type="curve" smooth="yes"/>
      <point x="525" y="700" type="line"/>
      <point x="791" y="700" type="line"/>
    </contour>
  </outline>
</glyph>
<glyph name="O" format="1">
  <advance width="760"/>
  <unicode hex="004F"/>
  <outline>
    <contour>
      <point x="370" y="-11" type="curve" smooth="yes"/>
      <point x="181" y="-11"/>
      <point x="31" y="78"/>
      <point x="31" y="284" type="curve" smooth="yes"/>
      <point x="31" y="515"/>
      <point x="161" y="710"/>
      <point x="424" y="710" type="curve" smooth="yes"/>
      <point x="610" y="710"/>
      <point x="760" y="619"/>
      <point x="760" y="413" type="curve" smooth="yes"/>
      <point x="760" y="179"/>
      <point x="624" y="-11"/>
    </contour>
    <contour>
      <point x="480" y="419" type="curve" smooth="yes"/>
      <point x="480" y="474"/>
      <point x="460" y="506"/>
      <point x="417" y="506" type="curve" smooth="yes"/>
      <point x="344" y="506"/>
      <point x="313" y="372"/>
      <point x="313" y="280" type="curve" smooth="yes"/>
      <point x="313" y="225"/>
      <point x="333" y="193"/>
      <point x="376" y="193" type="curve" smooth="yes"/>
      <point x="449" y="193"/>
      <point x="480" y="327"/>
    </contour>
  </outline>
</glyph>
<glyph name="P" format="1">
  <advance width="688"/>
  <unicode hex="0050"/>
  <outline>
    <contour>
      <point x="375" y="182" type="curve" smooth="yes"/>
      <point x="304" y="182" type="line"/>
      <point x="272" y="0" type="line"/>
      <point x="-8" y="0" type="line"/>
      <point x="116" y="700" type="line"/>
      <point x="428" y="700" type="line" smooth="yes"/>
      <point x="607" y="700"/>
      <point x="711" y="623"/>
      <point x="711" y="481" type="curve" smooth="yes"/>
      <point x="711" y="253"/>
      <point x="550" y="182"/>
    </contour>
    <contour>
      <point x="445" y="454" type="curve" smooth="yes"/>
      <point x="445" y="487"/>
      <point x="422" y="505"/>
      <point x="382" y="505" type="curve" smooth="yes"/>
      <point x="356" y="505" type="line"/>
      <point x="334" y="377" type="line"/>
      <point x="371" y="377" type="line" smooth="yes"/>
      <point x="407" y="377"/>
      <point x="445" y="402"/>
    </contour>
  </outline>
</glyph>
<glyph name="Q" format="1">
  <advance width="760"/>
  <unicode hex="0051"/>
  <outline>
    <contour>
      <point x="656" y="125" type="curve"/>
      <point x="708" y="42" type="line"/>
      <point x="478" y="-90" type="line"/>
      <point x="425" y="-6" type="line"/>
      <point x="408" y="-9"/>
      <point x="389" y="-11"/>
      <point x="370" y="-11" type="curve" smooth="yes"/>
      <point x="181" y="-11"/>
      <point x="31" y="78"/>
      <point x="31" y="284" type="curve" smooth="yes"/>
      <point x="31" y="515"/>
      <point x="161" y="710"/>
      <point x="424" y="710" type="curve" smooth="yes"/>
      <point x="610" y="710"/>
      <point x="761" y="619"/>
      <point x="760" y="413" type="curve" smooth="yes"/>
      <point x="760" y="296"/>
      <point x="724" y="198"/>
    </contour>
    <contour>
      <point x="480" y="419" type="curve" smooth="yes"/>
      <point x="480" y="474"/>
      <point x="460" y="506"/>
      <point x="417" y="506" type="curve" smooth="yes"/>
      <point x="344" y="506"/>
      <point x="313" y="372"/>
      <point x="313" y="280" type="curve" smooth="yes"/>
      <point x="313" y="225"/>
      <point x="333" y="193"/>
      <point x="376" y="193" type="curve" smooth="yes"/>
      <point x="449" y="193"/>
      <point x="480" y="327"/>
    </contour>
  </outline>
</glyph>
<glyph name="R" format="1">
  <advance width="712"/>
  <unicode hex="0052"/>
  <outline>
    <contour>
      <point x="667" y="0" type="line"/>
      <point x="365" y="0" type="line"/>
      <point x="307" y="217" type="line"/>
      <point x="305" y="217" type="line"/>
      <point x="267" y="0" type="line"/>
      <point x="-8" y="0" type="line"/>
      <point x="116" y="700" type="line"/>
      <point x="468" y="700" type="line" smooth="yes"/>
      <point x="611" y="700"/>
      <point x="723" y="644"/>
      <point x="723" y="499" type="curve" smooth="yes"/>
      <point x="723" y="367"/>
      <point x="648" y="300"/>
      <point x="570" y="261" type="curve"/>
    </contour>
    <contour>
      <point x="449" y="463" type="curve" smooth="yes"/>
      <point x="449" y="493"/>
      <point x="431" y="516"/>
      <point x="381" y="516" type="curve" smooth="yes"/>
      <point x="358" y="516" type="line"/>
      <point x="337" y="394" type="line"/>
      <point x="373" y="394" type="line" smooth="yes"/>
      <point x="422" y="394"/>
      <point x="449" y="421"/>
    </contour>
  </outline>
</glyph>
<glyph name="S" format="1">
  <advance width="677"/>
  <unicode hex="0053"/>
  <outline>
    <contour>
      <point x="341" y="-11" type="curve" smooth="yes"/>
      <point x="205" y="-11"/>
      <point x="76" y="21"/>
      <point x="-30" y="78" type="curve"/>
      <point x="78" y="267" type="line"/>
      <point x="189" y="214"/>
      <point x="285" y="192"/>
      <point x="334" y="192" type="curve" smooth="yes"/>
      <point x="362" y="192"/>
      <point x="364" y="201"/>
      <point x="364" y="211" type="curve" smooth="yes"/>
      <point x="364" y="218"/>
      <point x="360" y="225"/>
      <point x="292" y="247" type="curve" smooth="yes"/>
      <point x="129" y="301"/>
      <point x="61" y="366"/>
      <point x="61" y="459" type="curve" smooth="yes"/>
      <point x="61" y="615"/>
      <point x="175" y="711"/>
      <point x="384" y="711" type="curve" smooth="yes"/>
      <point x="508" y="711"/>
      <point x="637" y="671"/>
      <point x="719" y="620" type="curve"/>
      <point x="606" y="433" type="line"/>
      <point x="534" y="476"/>
      <point x="452" y="507"/>
      <point x="382" y="507" type="curve" smooth="yes"/>
      <point x="355" y="507"/>
      <point x="350" y="497"/>
      <point x="350" y="488" type="curve" smooth="yes"/>
      <point x="350" y="479"/>
      <point x="359" y="471"/>
      <point x="419" y="452" type="curve" smooth="yes"/>
      <point x="575" y="401"/>
      <point x="657" y="336"/>
      <point x="657" y="241" type="curve" smooth="yes"/>
      <point x="657" y="88"/>
      <point x="552" y="-11"/>
    </contour>
  </outline>
</glyph>
<glyph name="T" format="1">
  <advance width="676"/>
  <unicode hex="0054"/>
  <outline>
    <contour>
      <point x="696" y="476" type="line"/>
      <point x="522" y="476" type="line"/>
      <point x="438" y="0" type="line"/>
      <point x="150" y="0" type="line"/>
      <point x="234" y="476" type="line"/>
      <point x="60" y="476" type="line"/>
      <point x="100" y="700" type="line"/>
      <point x="736" y="700" type="line"/>
    </contour>
  </outline>
</glyph>
<glyph name="U" format="1">
  <advance width="752"/>
  <unicode hex="0055"/>
  <outline>
    <contour>
      <point x="725" y="299" type="line" smooth="yes"/>
      <point x="688" y="90"/>
      <point x="599" y="-11"/>
      <point x="364" y="-11" type="curve" smooth="yes"/>
      <point x="143" y="-11"/>
      <point x="34" y="56"/>
      <point x="34" y="227" type="curve" smooth="yes"/>
      <point x="34" y="254"/>
      <point x="37" y="286"/>
      <point x="43" y="319" type="curve" smooth="yes"/>
      <point x="110" y="700" type="line"/>
      <point x="398" y="700" type="line"/>
      <point x="328" y="300" type="line" smooth="yes"/>
      <point x="326" y="286"/>
      <point x="324" y="272"/>
      <point x="324" y="260" type="curve" smooth="yes"/>
      <point x="324" y="230"/>
      <point x="335" y="211"/>
      <point x="371" y="211" type="curve" smooth="yes"/>
      <point x="414" y="211"/>
      <point x="427" y="236"/>
      <point x="436" y="289" type="curve" smooth="yes"/>
      <point x="508" y="700" type="line"/>
      <point x="796" y="700" type="line"/>
    </contour>
  </outline>
</glyph>
<glyph name="V" format="1">
  <advance width="740"/>
  <unicode hex="0056"/>
  <outline>
    <contour>
      <point x="811" y="700" type="line"/>
      <point x="468" y="0" type="line"/>
      <point x="180" y="0" type="line"/>
      <point x="83" y="700" type="line"/>
      <point x="364" y="700" type="line"/>
      <point x="373" y="544" type="line" smooth="yes"/>
      <point x="375" y="511"/>
      <point x="378" y="359"/>
      <point x="372" y="269" type="curve"/>
      <point x="390" y="339"/>
      <point x="420" y="429"/>
      <point x="462" y="530" type="curve" smooth="yes"/>
      <point x="532" y="700" type="line"/>
    </contour>
  </outline>
</glyph>
<glyph name="W" format="1">
  <advance width="984"/>
  <unicode hex="0057"/>
  <outline>
    <contour>
      <point x="1054" y="700" type="line"/>
      <point x="764" y="0" type="line"/>
      <point x="489" y="0" type="line"/>
      <point x="491" y="122" type="line" smooth="yes"/>
      <point x="492" y="211"/>
      <point x="499" y="294"/>
      <point x="508" y="357" type="curve"/>
      <point x="494" y="294"/>
      <point x="470" y="212"/>
      <point x="441" y="122" type="curve" smooth="yes"/>
      <point x="401" y="0" type="line"/>
      <point x="126" y="0" type="line"/>
      <point x="84" y="700" type="line"/>
      <point x="365" y="700" type="line"/>
      <point x="358" y="555" type="line" smooth="yes"/>
      <point x="354" y="465"/>
      <point x="348" y="383"/>
      <point x="339" y="320" type="curve"/>
      <point x="353" y="383"/>
      <point x="375" y="465"/>
      <point x="402" y="555" type="curve" smooth="yes"/>
      <point x="445" y="700" type="line"/>
      <point x="695" y="700" type="line"/>
      <point x="688" y="555" type="line" smooth="yes"/>
      <point x="684" y="465"/>
      <point x="676" y="383"/>
      <point x="667" y="320" type="curve"/>
      <point x="681" y="383"/>
      <point x="705" y="465"/>
      <point x="732" y="555" type="curve" smooth="yes"/>
      <point x="775" y="700" type="line"/>
    </contour>
  </outline>
</glyph>
<glyph name="X" format="1">
  <advance width="742"/>
  <unicode hex="0058"/>
  <outline>
    <contour>
      <point x="700" y="0" type="line"/>
      <point x="398" y="0" type="line"/>
      <point x="377" y="71" type="line" smooth="yes"/>
      <point x="365" y="113"/>
      <point x="356" y="156"/>
      <point x="353" y="179" type="curve"/>
      <point x="346" y="156"/>
      <point x="323" y="112"/>
      <point x="297" y="71" type="curve" smooth="yes"/>
      <point x="252" y="0" type="line"/>
      <point x="-48" y="0" type="line"/>
      <point x="222" y="353" type="line"/>
      <point x="80" y="700" type="line"/>
      <point x="381" y="700" type="line"/>
      <point x="399" y="638" type="line" smooth="yes"/>
      <point x="412" y="594"/>
      <point x="420" y="552"/>
      <point x="421" y="530" type="curve"/>
      <point x="428" y="551"/>
      <point x="459" y="607"/>
      <point x="479" y="638" type="curve" smooth="yes"/>
      <point x="519" y="700" type="line"/>
      <point x="820" y="700" type="line"/>
      <point x="554" y="353" type="line"/>
    </contour>
  </outline>
</glyph>
<glyph name="Y" format="1">
  <advance width="758"/>
  <unicode hex="0059"/>
  <outline>
    <contour>
      <point x="838" y="700" type="line"/>
      <point x="519" y="239" type="line"/>
      <point x="477" y="0" type="line"/>
      <point x="189" y="0" type="line"/>
      <point x="231" y="239" type="line"/>
      <point x="74" y="700" type="line"/>
      <point x="380" y="700" type="line"/>
      <point x="398" y="613" type="line" smooth="yes"/>
      <point x="404" y="583"/>
      <point x="416" y="495"/>
      <point x="415" y="457" type="curve"/>
      <point x="430" y="502"/>
      <point x="452" y="551"/>
      <point x="486" y="613" type="curve" smooth="yes"/>
      <point x="534" y="700" type="line"/>
    </contour>
  </outline>
</glyph>
<glyph name="Z" format="1">
  <advance width="706"/>
  <unicode hex="005A"/>
  <outline>
    <contour>
      <point x="634" y="0" type="line"/>
      <point x="-29" y="0" type="line"/>
      <point x="5" y="192" type="line"/>
      <point x="260" y="408" type="line" smooth="yes"/>
      <point x="306" y="447"/>
      <point x="343" y="479"/>
      <point x="372" y="497" type="curve"/>
      <point x="353" y="493"/>
      <point x="310" y="491"/>
      <point x="272" y="491" type="curve" smooth="yes"/>
      <point x="78" y="491" type="line"/>
      <point x="114" y="700" type="line"/>
      <point x="757" y="700" type="line"/>
      <point x="724" y="508" type="line"/>
      <point x="468" y="292" type="line" smooth="yes"/>
      <point x="422" y="253"/>
      <point x="385" y="221"/>
      <point x="357" y="203" type="curve"/>
      <point x="376" y="207"/>
      <point x="419" y="209"/>
      <point x="457" y="209" type="curve" smooth="yes"/>
      <point x="671" y="209" type="line"/>
    </contour>
  </outline>
</glyph>
<glyph name="bracketleft" format="1">
  <advance width="463"/>
  <unicode hex="005B"/>
  <outline>
    <contour>
      <point x="374" y="-110" type="line"/>
      <point x="-27" y="-110" type="line"/>
      <point x="115" y="700" type="line"/>
      <point x="516" y="700" type="line"/>
      <point x="486" y="525" type="line"/>
      <point x="335" y="525" type="line"/>
      <point x="253" y="65" type="line"/>
      <point x="404" y="65" type="line"/>
    </contour>
  </outline>
</glyph>
<glyph name="backslash" format="1">
  <advance width="570"/>
  <unicode hex="005C"/>
  <outline>
    <contour>
      <point x="548" y="-90" type="line"/>
      <point x="281" y="-90" type="line"/>
      <point x="54" y="790" type="line"/>
      <point x="321" y="790" type="line"/>
    </contour>
  </outline>
</glyph>
<glyph name="bracketright" format="1">
  <advance width="463"/>
  <unicode hex="005D"/>
  <outline>
    <contour>
      <point x="360" y="-110" type="line"/>
      <point x="-41" y="-110" type="line"/>
      <point x="-11" y="65" type="line"/>
      <point x="140" y="65" type="line"/>
      <point x="222" y="525" type="line"/>
      <point x="71" y="525" type="line"/>
      <point x="101" y="700" type="line"/>
      <point x="502" y="700" type="line"/>
    </contour>
  </outline>
</glyph>
<glyph name="asciicircum" format="1">
  <advance width="620"/>
  <unicode hex="005E"/>
  <outline>
    <contour>
      <point x="631" y="362" type="line"/>
      <point x="394" y="362" type="line"/>
      <point x="352" y="500" type="line"/>
      <point x="262" y="362" type="line"/>
      <point x="23" y="362" type="line"/>
      <point x="269" y="700" type="line"/>
      <point x="505" y="700" type="line"/>
    </contour>
  </outline>
</glyph>
<glyph name="grave" format="1">
  <advance width="500"/>
  <unicode hex="0060"/>
  <outline>
    <contour>
      <point x="473" y="559" type="line"/>
      <point x="277" y="559" type="line"/>
      <point x="101" y="775" type="line"/>
      <point x="413" y="775" type="line"/>
    </contour>
  </outline>
</glyph>
<glyph name="a" format="1">
  <advance width="581"/>
  <unicode hex="0061"/>
  <outline>
    <contour>
      <point x="507" y="0" type="line"/>
      <point x="269" y="0" type="line"/>
      <point x="275" y="35" type="line"/>
      <point x="235" y="9"/>
      <point x="175" y="-11"/>
      <point x="135" y="-11" type="curve" smooth="yes"/>
      <point x="39" y="-11"/>
      <point x="-11" y="45"/>
      <point x="-11" y="128" type="curve" smooth="yes"/>
      <point x="-11" y="274"/>
      <point x="94" y="330"/>
      <point x="192" y="330" type="curve" smooth="yes"/>
      <point x="240" y="330"/>
      <point x="288" y="320"/>
      <point x="323" y="304" type="curve"/>
      <point x="325" y="318" type="line" smooth="yes"/>
      <point x="333" y="374"/>
      <point x="300" y="379"/>
      <point x="246" y="379" type="curve" smooth="yes"/>
      <point x="194" y="379"/>
      <point x="153" y="371"/>
      <point x="105" y="359" type="curve"/>
      <point x="89" y="511" type="line"/>
      <point x="134" y="523"/>
      <point x="213" y="536"/>
      <point x="298" y="536" type="curve" smooth="yes"/>
      <point x="485" y="536"/>
      <point x="567" y="497"/>
      <point x="567" y="383" type="curve" smooth="yes"/>
      <point x="567" y="354"/>
      <point x="564" y="324"/>
      <point x="560" y="299" type="curve" smooth="yes"/>
    </contour>
    <contour>
      <point x="293" y="132" type="curve"/>
      <point x="305" y="202" type="line"/>
      <point x="292" y="209"/>
      <point x="277" y="213"/>
      <point x="262" y="213" type="curve" smooth="yes"/>
      <point x="235" y="213"/>
      <point x="221" y="187"/>
      <point x="221" y="158" type="curve" smooth="yes"/>
      <point x="221" y="136"/>
      <point x="235" y="126"/>
      <point x="256" y="126" type="curve" smooth="yes"/>
      <point x="268" y="126"/>
      <point x="280" y="128"/>
    </contour>
  </outline>
</glyph>
<glyph name="b" format="1">
  <advance width="621"/>
  <unicode hex="0062"/>
  <outline>
    <contour>
      <point x="369" y="-11" type="curve" smooth="yes"/>
      <point x="316" y="-11"/>
      <point x="281" y="9"/>
      <point x="251" y="35" type="curve"/>
      <point x="245" y="0" type="line"/>
      <point x="-15" y="0" type="line"/>
      <point x="99" y="649" type="line"/>
      <point x="374" y="735" type="line"/>
      <point x="331" y="490" type="line"/>
      <point x="354" y="510"/>
      <point x="392" y="536"/>
      <point x="448" y="536" type="curve" smooth="yes"/>
      <point x="533" y="536"/>
      <point x="611" y="470"/>
      <point x="611" y="331" type="curve" smooth="yes"/>
      <point x="611" y="129"/>
      <point x="502" y="-11"/>
    </contour>
    <contour>
      <point x="367" y="317" type="curve" smooth="yes"/>
      <point x="367" y="353"/>
      <point x="352" y="366"/>
      <point x="326" y="366" type="curve" smooth="yes"/>
      <point x="320" y="366"/>
      <point x="313" y="365"/>
      <point x="308" y="362" type="curve"/>
      <point x="273" y="166" type="line"/>
      <point x="281" y="162"/>
      <point x="292" y="159"/>
      <point x="302" y="159" type="curve" smooth="yes"/>
      <point x="347" y="159"/>
      <point x="367" y="254"/>
    </contour>
  </outline>
</glyph>
<glyph name="c" format="1">
  <advance width="567"/>
  <unicode hex="0063"/>
  <outline>
    <contour>
      <point x="570" y="319" type="curve"/>
      <point x="347" y="284" type="line"/>
      <point x="350" y="345"/>
      <point x="341" y="364"/>
      <point x="314" y="364" type="curve" smooth="yes"/>
      <point x="267" y="364"/>
      <point x="252" y="247"/>
      <point x="252" y="210" type="curve" smooth="yes"/>
      <point x="252" y="174"/>
      <point x="265" y="161"/>
      <point x="287" y="161" type="curve" smooth="yes"/>
      <point x="306" y="161"/>
      <point x="327" y="176"/>
      <point x="344" y="224" type="curve"/>
      <point x="538" y="153" type="line"/>
      <point x="487" y="52"/>
      <point x="398" y="-11"/>
      <point x="283" y="-11" type="curve" smooth="yes"/>
      <point x="125" y="-11"/>
      <point x="11" y="64"/>
      <point x="11" y="214" type="curve" smooth="yes"/>
      <point x="11" y="411"/>
      <point x="133" y="536"/>
      <point x="315" y="536" type="curve" smooth="yes"/>
      <point x="481" y="536"/>
      <point x="558" y="459"/>
    </contour>
  </outline>
</glyph>
<glyph name="e" format="1">
  <advance width="578"/>
  <unicode hex="0065"/>
  <outline>
    <contour>
      <point x="554" y="203" type="curve"/>
      <point x="233" y="203" type="line"/>
      <point x="246" y="152"/>
      <point x="276" y="141"/>
      <point x="354" y="141" type="curve" smooth="yes"/>
      <point x="401" y="141"/>
      <point x="447" y="149"/>
      <point x="491" y="164" type="curve"/>
      <point x="524" y="22" type="line"/>
      <point x="456" y="-1"/>
      <point x="399" y="-11"/>
      <point x="300" y="-11" type="curve" smooth="yes"/>
      <point x="96" y="-11"/>
      <point x="10" y="83"/>
      <point x="10" y="227" type="curve" smooth="yes"/>
      <point x="10" y="421"/>
      <point x="140" y="536"/>
      <point x="327" y="536" type="curve" smooth="yes"/>
      <point x="458" y="536"/>
      <point x="566" y="475"/>
      <point x="566" y="311" type="curve" smooth="yes"/>
      <point x="566" y="280"/>
      <point x="562" y="238"/>
    </contour>
    <contour>
      <point x="361" y="324" type="line"/>
      <point x="361" y="366"/>
      <point x="348" y="387"/>
      <point x="312" y="387" type="curve" smooth="yes"/>
      <point x="274" y="387"/>
      <point x="254" y="361"/>
      <point x="245" y="324" type="curve"/>
    </contour>
  </outline>
</glyph>
<glyph name="f" format="1">
  <advance width="384"/>
  <unicode hex="0066"/>
  <outline>
    <contour>
      <point x="435" y="562" type="line"/>
      <point x="418" y="571"/>
      <point x="405" y="575"/>
      <point x="390" y="575" type="curve" smooth="yes"/>
      <point x="366" y="575"/>
      <point x="359" y="568"/>
      <point x="353" y="543" type="curve" smooth="yes"/>
      <point x="349" y="525" type="line"/>
      <point x="421" y="525" type="line"/>
      <point x="392" y="361" type="line"/>
      <point x="326" y="361" type="line"/>
      <point x="262" y="0" type="line"/>
      <point x="12" y="0" type="line"/>
      <point x="76" y="361" type="line"/>
      <point x="24" y="361" type="line"/>
      <point x="53" y="525" type="line"/>
      <point x="105" y="525" type="line"/>
      <point x="116" y="584" type="line" smooth="yes"/>
      <point x="137" y="695"/>
      <point x="199" y="736"/>
      <point x="299" y="736" type="curve" smooth="yes"/>
      <point x="366" y="736"/>
      <point x="414" y="724"/>
      <point x="460" y="704" type="curve"/>
    </contour>
  </outline>
</glyph>
<glyph name="h" format="1">
  <advance width="649"/>
  <unicode hex="0068"/>
  <outline>
    <contour>
      <point x="574" y="0" type="line"/>
      <point x="314" y="0" type="line"/>
      <point x="365" y="286" type="line" smooth="yes"/>
      <point x="366" y="294"/>
      <point x="367" y="302"/>
      <point x="367" y="308" type="curve" smooth="yes"/>
      <point x="367" y="327"/>
      <point x="358" y="337"/>
      <point x="337" y="337" type="curve" smooth="yes"/>
      <point x="310" y="337"/>
      <point x="302" y="325"/>
      <point x="296" y="291" type="curve" smooth="yes"/>
      <point x="244" y="0" type="line"/>
      <point x="-16" y="0" type="line"/>
      <point x="99" y="649" type="line"/>
      <point x="374" y="735" type="line"/>
      <point x="331" y="490" type="line"/>
      <point x="366" y="514"/>
      <point x="417" y="536"/>
      <point x="472" y="536" type="curve" smooth="yes"/>
      <point x="575" y="536"/>
      <point x="637" y="496"/>
      <point x="637" y="391" type="curve" smooth="yes"/>
      <point x="637" y="373"/>
      <point x="635" y="351"/>
      <point x="632" y="331" type="curve" smooth="yes"/>
    </contour>
  </outline>
</glyph>
<glyph name="i" format="1">
  <advance width="322"/>
  <unicode hex="0069"/>
  <outline>
    <contour>
      <point x="234" y="557" type="curve" smooth="yes"/>
      <point x="152" y="557"/>
      <point x="88" y="588"/>
      <point x="88" y="647" type="curve" smooth="yes"/>
      <point x="88" y="709"/>
      <point x="138" y="755"/>
      <point x="229" y="755" type="curve" smooth="yes"/>
      <point x="312" y="755"/>
      <point x="374" y="719"/>
      <point x="374" y="664" type="curve" smooth="yes"/>
      <point x="374" y="598"/>
      <point x="315" y="557"/>
    </contour>
    <contour>
      <point x="245" y="0" type="line"/>
      <point x="-15" y="0" type="line"/>
      <point x="78" y="525" type="line"/>
      <point x="338" y="525" type="line"/>
    </contour>
  </outline>
</glyph>
<glyph name="j" format="1">
  <advance width="322"/>
  <unicode hex="006A"/>
  <outline>
    <contour>
      <point x="234" y="557" type="curve" smooth="yes"/>
      <point x="152" y="557"/>
      <point x="88" y="588"/>
      <point x="88" y="647" type="curve" smooth="yes"/>
      <point x="88" y="709"/>
      <point x="138" y="755"/>
      <point x="229" y="755" type="curve" smooth="yes"/>
      <point x="312" y="755"/>
      <point x="374" y="719"/>
      <point x="374" y="664" type="curve" smooth="yes"/>
      <point x="374" y="598"/>
      <point x="315" y="557"/>
    </contour>
    <contour>
      <point x="255" y="57" type="line" smooth="yes"/>
      <point x="220" y="-141"/>
      <point x="101" y="-188"/>
      <point x="-87" y="-186" type="curve"/>
      <point x="-132" y="-27" type="line"/>
      <point x="-53" y="-17"/>
      <point x="-17" y="-9"/>
      <point x="-4" y="64" type="curve" smooth="yes"/>
      <point x="77" y="525" type="line"/>
      <point x="337" y="525" type="line"/>
    </contour>
  </outline>
</glyph>
<glyph name="k" format="1">
  <advance width="622"/>
  <unicode hex="006B"/>
  <outline>
    <contour>
      <point x="499" y="352" type="line"/>
      <point x="583" y="0" type="line"/>
      <point x="317" y="0" type="line"/>
      <point x="290" y="167" type="line"/>
      <point x="268" y="142" type="line"/>
      <point x="244" y="0" type="line"/>
      <point x="-16" y="0" type="line"/>
      <point x="98" y="649" type="line"/>
      <point x="373" y="735" type="line"/>
      <point x="319" y="427" type="line" smooth="yes"/>
      <point x="317" y="415"/>
      <point x="311" y="391"/>
      <point x="307" y="376" type="curve"/>
      <point x="321" y="405"/>
      <point x="364" y="468"/>
      <point x="374" y="481" type="curve" smooth="yes"/>
      <point x="410" y="525" type="line"/>
      <point x="665" y="525" type="line"/>
    </contour>
  </outline>
</glyph>
<glyph name="l" format="1">
  <advance width="322"/>
  <unicode hex="006C"/>
  <outline>
    <contour>
      <point x="246" y="0" type="line"/>
      <point x="-14" y="0" type="line"/>
      <point x="100" y="649" type="line"/>
      <point x="376" y="735" type="line"/>
    </contour>
  </outline>
</glyph>
<glyph name="m" format="1">
  <advance width="943"/>
  <unicode hex="006D"/>
  <outline>
    <contour>
      <point x="616" y="0" type="line"/>
      <point x="667" y="286" type="line" smooth="yes"/>
      <point x="668" y="294"/>
      <point x="669" y="302"/>
      <point x="669" y="308" type="curve" smooth="yes"/>
      <point x="669" y="327"/>
      <point x="660" y="337"/>
      <point x="639" y="337" type="curve" smooth="yes"/>
      <point x="612" y="337"/>
      <point x="604" y="325"/>
      <point x="598" y="291" type="curve" smooth="yes"/>
      <point x="546" y="0" type="line"/>
      <point x="304" y="0" type="line"/>
      <point x="355" y="286" type="line" smooth="yes"/>
      <point x="356" y="294"/>
      <point x="357" y="302"/>
      <point x="357" y="308" type="curve" smooth="yes"/>
      <point x="357" y="327"/>
      <point x="348" y="337"/>
      <point x="327" y="337" type="curve" smooth="yes"/>
      <point x="300" y="337"/>
      <point x="292" y="325"/>
      <point x="286" y="291" type="curve" smooth="yes"/>
      <point x="234" y="0" type="line"/>
      <point x="-16" y="0" type="line"/>
      <point x="77" y="525" type="line"/>
      <point x="328" y="525" type="line"/>
      <point x="322" y="490" type="line"/>
      <point x="365" y="517"/>
      <point x="408" y="536"/>
      <point x="467" y="536" type="curve" smooth="yes"/>
      <point x="526" y="536"/>
      <point x="578" y="518"/>
      <point x="605" y="485" type="curve"/>
      <point x="659" y="516"/>
      <point x="707" y="536"/>
      <point x="778" y="536" type="curve" smooth="yes"/>
      <point x="867" y="536"/>
      <point x="932" y="494"/>
      <point x="932" y="388" type="curve" smooth="yes"/>
      <point x="932" y="373"/>
      <point x="930" y="350"/>
      <point x="928" y="336" type="curve" smooth="yes"/>
      <point x="869" y="0" type="line"/>
    </contour>
  </outline>
</glyph>
<glyph name="o" format="1">
  <advance width="606"/>
  <unicode hex="006F"/>
  <outline>
    <contour>
      <point x="288" y="-11" type="curve" smooth="yes"/>
      <point x="127" y="-11"/>
      <point x="11" y="60"/>
      <point x="11" y="211" type="curve" smooth="yes"/>
      <point x="11" y="385"/>
      <point x="105" y="536"/>
      <point x="319" y="536" type="curve" smooth="yes"/>
      <point x="465" y="536"/>
      <point x="595" y="474"/>
      <point x="595" y="314" type="curve" smooth="yes"/>
      <point x="595" y="107"/>
      <point x="469" y="-11"/>
    </contour>
    <contour>
      <point x="354" y="318" type="curve" smooth="yes"/>
      <point x="354" y="358"/>
      <point x="341" y="368"/>
      <point x="316" y="368" type="curve" smooth="yes"/>
      <point x="268" y="368"/>
      <point x="253" y="250"/>
      <point x="253" y="206" type="curve" smooth="yes"/>
      <point x="253" y="166"/>
      <point x="266" y="156"/>
      <point x="291" y="156" type="curve" smooth="yes"/>
      <point x="339" y="156"/>
      <point x="354" y="274"/>
    </contour>
  </outline>
</glyph>
<glyph name="r" format="1">
  <advance width="468"/>
  <unicode hex="0072"/>
  <outline>
    <contour>
      <point x="525" y="528" type="curve"/>
      <point x="437" y="300" type="line"/>
      <point x="416" y="316"/>
      <point x="388" y="327"/>
      <point x="362" y="327" type="curve" smooth="yes"/>
      <point x="329" y="327"/>
      <point x="298" y="306"/>
      <point x="289" y="253" type="curve" smooth="yes"/>
      <point x="245" y="0" type="line"/>
      <point x="-15" y="0" type="line"/>
      <point x="77" y="525" type="line"/>
      <point x="337" y="525" type="line"/>
      <point x="331" y="490" type="line"/>
      <point x="357" y="510"/>
      <point x="397" y="536"/>
      <point x="458" y="536" type="curve" smooth="yes"/>
      <point x="478" y="536"/>
      <point x="500" y="533"/>
    </contour>
  </outline>
</glyph>
<glyph name="s" format="1">
  <advance width="518"/>
  <unicode hex="0073"/>
  <outline>
    <contour>
      <point x="244" y="-11" type="curve" smooth="yes"/>
      <point x="129" y="-11"/>
      <point x="43" y="11"/>
      <point x="-33" y="39" type="curve"/>
      <point x="43" y="192" type="line"/>
      <point x="73" y="178"/>
      <point x="172" y="144"/>
      <point x="232" y="144" type="curve" smooth="yes"/>
      <point x="246" y="144"/>
      <point x="252" y="149"/>
      <point x="252" y="159" type="curve" smooth="yes"/>
      <point x="252" y="165"/>
      <point x="249" y="169"/>
      <point x="235" y="174" type="curve" smooth="yes"/>
      <point x="90" y="223"/>
      <point x="36" y="258"/>
      <point x="36" y="349" type="curve" smooth="yes"/>
      <point x="36" y="442"/>
      <point x="104" y="536"/>
      <point x="289" y="536" type="curve" smooth="yes"/>
      <point x="379" y="536"/>
      <point x="471" y="516"/>
      <point x="536" y="487" type="curve"/>
      <point x="449" y="332" type="line"/>
      <point x="403" y="359"/>
      <point x="330" y="381"/>
      <point x="291" y="381" type="curve" smooth="yes"/>
      <point x="278" y="381"/>
      <point x="271" y="376"/>
      <point x="271" y="366" type="curve" smooth="yes"/>
      <point x="271" y="359"/>
      <point x="278" y="354"/>
      <point x="287" y="351" type="curve" smooth="yes"/>
      <point x="436" y="303"/>
      <point x="488" y="266"/>
      <point x="488" y="173" type="curve" smooth="yes"/>
      <point x="488" y="70"/>
      <point x="424" y="-11"/>
    </contour>
  </outline>
</glyph>
<glyph name="t" format="1">
  <advance width="446"/>
  <unicode hex="0074"/>
  <outline>
    <contour>
      <point x="414" y="178" type="curve"/>
      <point x="357" y="3" type="line"/>
      <point x="331" y="-5"/>
      <point x="291" y="-11"/>
      <point x="244" y="-11" type="curve" smooth="yes"/>
      <point x="128" y="-11"/>
      <point x="39" y="16"/>
      <point x="39" y="124" type="curve" smooth="yes"/>
      <point x="39" y="140"/>
      <point x="41" y="162"/>
      <point x="43" y="176" type="curve" smooth="yes"/>
      <point x="76" y="361" type="line"/>
      <point x="24" y="361" type="line"/>
      <point x="53" y="525" type="line"/>
      <point x="105" y="525" type="line"/>
      <point x="127" y="650" type="line"/>
      <point x="398" y="735" type="line"/>
      <point x="361" y="525" type="line"/>
      <point x="469" y="525" type="line"/>
      <point x="440" y="361" type="line"/>
      <point x="326" y="361" type="line"/>
      <point x="300" y="211" type="line" smooth="yes"/>
      <point x="299" y="206"/>
      <point x="299" y="199"/>
      <point x="299" y="194" type="curve" smooth="yes"/>
      <point x="299" y="174"/>
      <point x="311" y="163"/>
      <point x="340" y="163" type="curve" smooth="yes"/>
      <point x="365" y="163"/>
      <point x="385" y="165"/>
    </contour>
  </outline>
</glyph>
<glyph name="u" format="1">
  <advance width="649"/>
  <unicode hex="0075"/>
  <outline>
    <contour>
      <point x="74" y="525" type="line"/>
      <point x="334" y="525" type="line"/>
      <point x="283" y="239" type="line" smooth="yes"/>
      <point x="282" y="231"/>
      <point x="281" y="223"/>
      <point x="281" y="217" type="curve" smooth="yes"/>
      <point x="281" y="198"/>
      <point x="290" y="188"/>
      <point x="311" y="188" type="curve" smooth="yes"/>
      <point x="338" y="188"/>
      <point x="346" y="200"/>
      <point x="352" y="234" type="curve" smooth="yes"/>
      <point x="404" y="525" type="line"/>
      <point x="664" y="525" type="line"/>
      <point x="571" y="0" type="line"/>
      <point x="311" y="0" type="line"/>
      <point x="317" y="35" type="line"/>
      <point x="282" y="11"/>
      <point x="231" y="-11"/>
      <point x="176" y="-11" type="curve" smooth="yes"/>
      <point x="73" y="-11"/>
      <point x="11" y="29"/>
      <point x="11" y="134" type="curve" smooth="yes"/>
      <point x="11" y="152"/>
      <point x="13" y="174"/>
      <point x="16" y="194" type="curve" smooth="yes"/>
    </contour>
  </outline>
</glyph>
<glyph name="v" format="1">
  <advance width="598"/>
  <unicode hex="0076"/>
  <outline>
    <contour>
      <point x="646" y="525" type="line"/>
      <point x="383" y="0" type="line"/>
      <point x="123" y="0" type="line"/>
      <point x="44" y="525" type="line"/>
      <point x="293" y="525" type="line"/>
      <point x="296" y="389" type="line" smooth="yes"/>
      <point x="297" y="332"/>
      <point x="294" y="249"/>
      <point x="289" y="203" type="curve"/>
      <point x="304" y="269"/>
      <point x="338" y="369"/>
      <point x="373" y="465" type="curve" smooth="yes"/>
      <point x="395" y="525" type="line"/>
    </contour>
  </outline>
</glyph>
<glyph name="w" format="1">
  <advance width="792"/>
  <unicode hex="0077"/>
  <outline>
    <contour>
      <point x="839" y="525" type="line"/>
      <point x="636" y="0" type="line"/>
      <point x="392" y="0" type="line"/>
      <point x="392" y="36" type="line" smooth="yes"/>
      <point x="392" y="125"/>
      <point x="393" y="189"/>
      <point x="397" y="269" type="curve"/>
      <point x="378" y="199"/>
      <point x="343" y="102"/>
      <point x="321" y="41" type="curve" smooth="yes"/>
      <point x="306" y="0" type="line"/>
      <point x="94" y="0" type="line"/>
      <point x="47" y="525" type="line"/>
      <point x="278" y="525" type="line"/>
      <point x="277" y="452" type="line" smooth="yes"/>
      <point x="276" y="375"/>
      <point x="273" y="299"/>
      <point x="267" y="246" type="curve"/>
      <point x="281" y="299"/>
      <point x="309" y="401"/>
      <point x="326" y="453" type="curve" smooth="yes"/>
      <point x="350" y="525" type="line"/>
      <point x="538" y="525" type="line"/>
      <point x="536" y="453" type="line" smooth="yes"/>
      <point x="534" y="397"/>
      <point x="529" y="299"/>
      <point x="523" y="246" type="curve"/>
      <point x="535" y="299"/>
      <point x="564" y="390"/>
      <point x="585" y="452" type="curve" smooth="yes"/>
      <point x="610" y="525" type="line"/>
    </contour>
  </outline>
</glyph>
<glyph name="x" format="1">
  <advance width="614"/>
  <unicode hex="0078"/>
  <outline>
    <contour>
      <point x="569" y="0" type="line"/>
      <point x="313" y="0" type="line"/>
      <point x="294" y="89" type="line" smooth="yes"/>
      <point x="290" y="107"/>
      <point x="285" y="142"/>
      <point x="284" y="164" type="curve"/>
      <point x="277" y="141"/>
      <point x="241" y="68"/>
      <point x="226" y="41" type="curve" smooth="yes"/>
      <point x="203" y="0" type="line"/>
      <point x="-51" y="0" type="line"/>
      <point x="162" y="272" type="line"/>
      <point x="52" y="525" type="line"/>
      <point x="308" y="525" type="line"/>
      <point x="322" y="451" type="line" smooth="yes"/>
      <point x="325" y="435"/>
      <point x="331" y="397"/>
      <point x="331" y="381" type="curve"/>
      <point x="340" y="407"/>
      <point x="360" y="453"/>
      <point x="389" y="511" type="curve" smooth="yes"/>
      <point x="396" y="525" type="line"/>
      <point x="650" y="525" type="line"/>
      <point x="452" y="272" type="line"/>
    </contour>
  </outline>
</glyph>
<glyph name="y" format="1">
  <advance width="598"/>
  <unicode hex="0079"/>
  <outline>
    <contour>
      <point x="652" y="525" type="line"/>
      <point x="283" y="-185" type="line"/>
      <point x="48" y="-185" type="line"/>
      <point x="143" y="-17" type="line"/>
      <point x="50" y="525" type="line"/>
      <point x="301" y="525" type="line"/>
      <point x="303" y="465" type="line" smooth="yes"/>
      <point x="306" y="370"/>
      <point x="303" y="269"/>
      <point x="296" y="203" type="curve"/>
      <point x="311" y="269"/>
      <point x="346" y="369"/>
      <point x="381" y="465" type="curve" smooth="yes"/>
      <point x="403" y="525" type="line"/>
    </contour>
  </outline>
</glyph>
<glyph name="z" format="1">
  <advance width="561"/>
  <unicode hex="007A"/>
  <outline>
    <contour>
      <point x="492" y="0" type="line"/>
      <point x="-21" y="0" type="line"/>
      <point x="4" y="145" type="line"/>
      <point x="261" y="360" type="line"/>
      <point x="52" y="360" type="line"/>
      <point x="81" y="525" type="line"/>
      <point x="584" y="525" type="line"/>
      <point x="559" y="380" type="line"/>
      <point x="306" y="165" type="line"/>
      <point x="521" y="165" type="line"/>
    </contour>
  </outline>
</glyph>
<glyph name="braceleft" format="1">
  <advance width="510"/>
  <unicode hex="007B"/>
  <outline>
    <contour>
      <point x="420" y="-111" type="line"/>
      <point x="145" y="-92"/>
      <point x="58" y="-27"/>
      <point x="87" y="145" type="curve" smooth="yes"/>
      <point x="89" y="157" type="line" smooth="yes"/>
      <point x="94" y="189"/>
      <point x="85" y="200"/>
      <point x="49" y="200" type="curve" smooth="yes"/>
      <point x="6" y="200" type="line"/>
      <point x="40" y="396" type="line"/>
      <point x="83" y="396" type="line" smooth="yes"/>
      <point x="117" y="396"/>
      <point x="130" y="404"/>
      <point x="143" y="477" type="curve" smooth="yes"/>
      <point x="145" y="488" type="line" smooth="yes"/>
      <point x="177" y="664"/>
      <point x="289" y="721"/>
      <point x="564" y="702" type="curve"/>
      <point x="536" y="543" type="line"/>
      <point x="437" y="539"/>
      <point x="422" y="524"/>
      <point x="401" y="450" type="curve" smooth="yes"/>
      <point x="399" y="443" type="line" smooth="yes"/>
      <point x="369" y="337"/>
      <point x="349" y="314"/>
      <point x="279" y="297" type="curve"/>
      <point x="338" y="277"/>
      <point x="364" y="243"/>
      <point x="351" y="154" type="curve" smooth="yes"/>
      <point x="350" y="147" type="line" smooth="yes"/>
      <point x="340" y="74"/>
      <point x="353" y="63"/>
      <point x="449" y="48" type="curve"/>
    </contour>
  </outline>
</glyph>
<glyph name="bar" format="1">
  <advance width="344"/>
  <unicode hex="007C"/>
  <outline>
    <contour>
      <point x="227" y="-185" type="line"/>
      <point x="-41" y="-185" type="line"/>
      <point x="133" y="800" type="line"/>
      <point x="401" y="800" type="line"/>
    </contour>
  </outline>
</glyph>
<glyph name="braceright" format="1">
  <advance width="510"/>
  <unicode hex="007D"/>
  <outline>
    <contour>
      <point x="104" y="707" type="line"/>
      <point x="379" y="688"/>
      <point x="466" y="625"/>
      <point x="437" y="451" type="curve" smooth="yes"/>
      <point x="435" y="439" type="line" smooth="yes"/>
      <point x="430" y="407"/>
      <point x="439" y="396"/>
      <point x="475" y="396" type="curve" smooth="yes"/>
      <point x="518" y="396" type="line"/>
      <point x="484" y="200" type="line"/>
      <point x="441" y="200" type="line" smooth="yes"/>
      <point x="407" y="200"/>
      <point x="394" y="193"/>
      <point x="381" y="119" type="curve" smooth="yes"/>
      <point x="379" y="108" type="line" smooth="yes"/>
      <point x="346" y="-71"/>
      <point x="235" y="-125"/>
      <point x="-40" y="-106" type="curve"/>
      <point x="-12" y="53" type="line"/>
      <point x="87" y="57"/>
      <point x="101" y="69"/>
      <point x="123" y="146" type="curve" smooth="yes"/>
      <point x="125" y="153" type="line" smooth="yes"/>
      <point x="156" y="263"/>
      <point x="175" y="282"/>
      <point x="245" y="299" type="curve"/>
      <point x="186" y="319"/>
      <point x="160" y="352"/>
      <point x="173" y="442" type="curve" smooth="yes"/>
      <point x="174" y="449" type="line" smooth="yes"/>
      <point x="185" y="523"/>
      <point x="171" y="533"/>
      <point x="75" y="548" type="curve"/>
    </contour>
  </outline>
</glyph>
<glyph name="asciitilde" format="1">
  <advance width="582"/>
  <unicode hex="007E"/>
  <outline>
    <contour>
      <point x="609" y="432" type="line"/>
      <point x="511" y="272"/>
      <point x="457" y="227"/>
      <point x="386" y="227" type="curve" smooth="yes"/>
      <point x="305" y="227"/>
      <point x="263" y="297"/>
      <point x="222" y="297" type="curve" smooth="yes"/>
      <point x="203" y="297"/>
      <point x="189" y="287"/>
      <point x="153" y="236" type="curve"/>
      <point x="11" y="311" type="line"/>
      <point x="107" y="469"/>
      <point x="164" y="517"/>
      <point x="231" y="517" type="curve" smooth="yes"/>
      <point x="315" y="517"/>
      <point x="350" y="446"/>
      <point x="399" y="446" type="curve" smooth="yes"/>
      <point x="418" y="446"/>
      <point x="431" y="457"/>
      <point x="467" y="507" type="curve"/>
    </contour>
  </outline>
</glyph>
<glyph name="exclamdown" format="1">
  <advance width="360"/>
  <unicode hex="00A1"/>
  <outline>
    <contour>
      <point x="245" y="711" type="curve" smooth="yes"/>
      <point x="327" y="711"/>
      <point x="394" y="671"/>
      <point x="394" y="595" type="curve" smooth="yes"/>
      <point x="394" y="502"/>
      <point x="319" y="453"/>
      <point x="229" y="453" type="curve" smooth="yes"/>
      <point x="145" y="453"/>
      <point x="80" y="493"/>
      <point x="80" y="566" type="curve" smooth="yes"/>
      <point x="80" y="643"/>
      <point x="140" y="711"/>
    </contour>
    <contour>
      <point x="33" y="244" type="line"/>
      <point x="121" y="428" type="line"/>
      <point x="299" y="428" type="line"/>
      <point x="321" y="244" type="line"/>
      <point x="278" y="0" type="line"/>
      <point x="-10" y="0" type="line"/>
    </contour>
  </outline>
</glyph>
<glyph name="cent" format="1">
  <advance width="552"/>
  <unicode hex="00A2"/>
  <outline>
    <contour>
      <point x="574" y="412" type="curve"/>
      <point x="359" y="378" type="line"/>
      <point x="362" y="438"/>
      <point x="352" y="456"/>
      <point x="327" y="456" type="curve" smooth="yes"/>
      <point x="284" y="456"/>
      <point x="265" y="357"/>
      <point x="265" y="308" type="curve" smooth="yes"/>
      <point x="265" y="272"/>
      <point x="274" y="255"/>
      <point x="300" y="255" type="curve" smooth="yes"/>
      <point x="319" y="255"/>
      <point x="338" y="271"/>
      <point x="356" y="322" type="curve"/>
      <point x="543" y="249" type="line"/>
      <point x="507" y="175"/>
      <point x="455" y="119"/>
      <point x="385" y="89" type="curve"/>
      <point x="369" y="0" type="line"/>
      <point x="115" y="0" type="line"/>
      <point x="134" y="106" type="line"/>
      <point x="69" y="137"/>
      <point x="27" y="199"/>
      <point x="27" y="299" type="curve" smooth="yes"/>
      <point x="27" y="452"/>
      <point x="104" y="564"/>
      <point x="221" y="604" type="curve"/>
      <point x="238" y="700" type="line"/>
      <point x="492" y="700" type="line"/>
      <point x="473" y="591" type="line"/>
      <point x="536" y="560"/>
      <point x="566" y="499"/>
    </contour>
  </outline>
</glyph>
<glyph name="sterling" format="1">
  <advance width="690"/>
  <unicode hex="00A3"/>
  <outline>
    <contour>
      <point x="109" y="249" type="curve"/>
      <point x="35" y="249" type="line"/>
      <point x="66" y="424" type="line"/>
      <point x="125" y="424" type="line"/>
      <point x="112" y="459"/>
      <point x="92" y="487"/>
      <point x="92" y="525" type="curve" smooth="yes"/>
      <point x="92" y="631"/>
      <point x="190" y="711"/>
      <point x="394" y="711" type="curve" smooth="yes"/>
      <point x="540" y="711"/>
      <point x="676" y="665"/>
      <point x="754" y="609" type="curve"/>
      <point x="632" y="429" type="line"/>
      <point x="565" y="473"/>
      <point x="478" y="510"/>
      <point x="391" y="510" type="curve" smooth="yes"/>
      <point x="362" y="510"/>
      <point x="352" y="499"/>
      <point x="352" y="485" type="curve" smooth="yes"/>
      <point x="352" y="469"/>
      <point x="367" y="449"/>
      <point x="379" y="424" type="curve"/>
      <point x="532" y="424" type="line"/>
      <point x="501" y="249" type="line"/>
      <point x="364" y="249" type="line"/>
      <point x="352" y="230"/>
      <point x="335" y="212"/>
      <point x="313" y="192" type="curve"/>
      <point x="648" y="192" type="line"/>
      <point x="614" y="0" type="line"/>
      <point x="-25" y="0" type="line"/>
      <point x="2" y="149" type="line"/>
      <point x="55" y="176"/>
      <point x="89" y="209"/>
    </contour>
  </outline>
</glyph>
<glyph name="yen" format="1">
  <advance width="758"/>
  <unicode hex="00A5"/>
  <outline>
    <contour>
      <point x="839" y="700" type="line"/>
      <point x="549" y="291" type="line"/>
      <point x="694" y="291" type="line"/>
      <point x="659" y="94" type="line"/>
      <point x="484" y="94" type="line"/>
      <point x="468" y="0" type="line"/>
      <point x="200" y="0" type="line"/>
      <point x="216" y="94" type="line"/>
      <point x="41" y="94" type="line"/>
      <point x="76" y="291" type="line"/>
      <point x="225" y="291" type="line"/>
      <point x="75" y="700" type="line"/>
      <point x="381" y="700" type="line"/>
      <point x="399" y="613" type="line" smooth="yes"/>
      <point x="412" y="551"/>
      <point x="421" y="499"/>
      <point x="418" y="457" type="curve"/>
      <point x="431" y="499"/>
      <point x="453" y="551"/>
      <point x="487" y="613" type="curve" smooth="yes"/>
      <point x="535" y="700" type="line"/>
    </contour>
  </outline>
</glyph>
<glyph name="section" format="1">
  <advance width="718"/>
  <unicode hex="00A7"/>
  <outline>
    <contour>
      <point x="168" y="447" type="curve"/>
      <point x="162" y="463"/>
      <point x="159" y="481"/>
      <point x="159" y="500" type="curve" smooth="yes"/>
      <point x="159" y="606"/>
      <point x="231" y="711"/>
      <point x="409" y="711" type="curve" smooth="yes"/>
      <point x="528" y="711"/>
      <point x="626" y="678"/>
      <point x="705" y="619" type="curve"/>
      <point x="600" y="466" type="line"/>
      <point x="533" y="511"/>
      <point x="463" y="538"/>
      <point x="411" y="538" type="curve" smooth="yes"/>
      <point x="393" y="538"/>
      <point x="389" y="529"/>
      <point x="389" y="519" type="curve" smooth="yes"/>
      <point x="389" y="511"/>
      <point x="403" y="499"/>
      <point x="483" y="468" type="curve" smooth="yes"/>
      <point x="631" y="412"/>
      <point x="701" y="361"/>
      <point x="701" y="278" type="curve" smooth="yes"/>
      <point x="701" y="187"/>
      <point x="648" y="136"/>
      <point x="564" y="101" type="curve"/>
      <point x="570" y="85"/>
      <point x="573" y="67"/>
      <point x="573" y="48" type="curve" smooth="yes"/>
      <point x="573" y="-58"/>
      <point x="501" y="-163"/>
      <point x="323" y="-163" type="curve" smooth="yes"/>
      <point x="204" y="-163"/>
      <point x="106" y="-130"/>
      <point x="27" y="-71" type="curve"/>
      <point x="132" y="82" type="line"/>
      <point x="199" y="37"/>
      <point x="269" y="10"/>
      <point x="321" y="10" type="curve" smooth="yes"/>
      <point x="339" y="10"/>
      <point x="343" y="19"/>
      <point x="343" y="29" type="curve" smooth="yes"/>
      <point x="343" y="37"/>
      <point x="329" y="49"/>
      <point x="249" y="80" type="curve" smooth="yes"/>
      <point x="101" y="136"/>
      <point x="31" y="187"/>
      <point x="31" y="270" type="curve" smooth="yes"/>
      <point x="31" y="361"/>
      <point x="84" y="412"/>
    </contour>
    <contour>
      <point x="459" y="205" type="curve"/>
      <point x="469" y="214"/>
      <point x="474" y="224"/>
      <point x="474" y="234" type="curve" smooth="yes"/>
      <point x="474" y="251"/>
      <point x="461" y="267"/>
      <point x="361" y="304" type="curve" smooth="yes"/>
      <point x="327" y="317"/>
      <point x="298" y="329"/>
      <point x="273" y="343" type="curve"/>
      <point x="263" y="334"/>
      <point x="258" y="324"/>
      <point x="258" y="314" type="curve" smooth="yes"/>
      <point x="258" y="297"/>
      <point x="271" y="281"/>
      <point x="371" y="244" type="curve" smooth="yes"/>
      <point x="405" y="231"/>
      <point x="434" y="219"/>
    </contour>
  </outline>
</glyph>
<glyph name="dieresis" format="1">
  <advance width="500"/>
  <unicode hex="00A8"/>
  <outline>
    <contour>
      <point x="457" y="551" type="curve" smooth="yes"/>
      <point x="391" y="551"/>
      <point x="337" y="603"/>
      <point x="337" y="667" type="curve" smooth="yes"/>
      <point x="337" y="741"/>
      <point x="405" y="803"/>
      <point x="482" y="803" type="curve" smooth="yes"/>
      <point x="546" y="803"/>
      <point x="599" y="754"/>
      <point x="599" y="690" type="curve" smooth="yes"/>
      <point x="599" y="626"/>
      <point x="541" y="551"/>
    </contour>
    <contour>
      <point x="168" y="551" type="curve" smooth="yes"/>
      <point x="102" y="551"/>
      <point x="48" y="603"/>
      <point x="48" y="667" type="curve" smooth="yes"/>
      <point x="48" y="741"/>
      <point x="116" y="803"/>
      <point x="193" y="803" type="curve" smooth="yes"/>
      <point x="257" y="803"/>
      <point x="310" y="754"/>
      <point x="310" y="690" type="curve" smooth="yes"/>
      <point x="310" y="626"/>
      <point x="252" y="551"/>
    </contour>
  </outline>
</glyph>
<glyph name="copyright" format="1">
  <advance width="836"/>
  <unicode hex="00A9"/>
  <outline>
    <contour>
      <point x="820" y="351" type="curve" smooth="yes"/>
      <point x="820" y="136"/>
      <point x="653" y="-11"/>
      <point x="438" y="-11" type="curve" smooth="yes"/>
      <point x="223" y="-11"/>
      <point x="58" y="134"/>
      <point x="58" y="349" type="curve" smooth="yes"/>
      <point x="58" y="564"/>
      <point x="225" y="711"/>
      <point x="440" y="711" type="curve" smooth="yes"/>
      <point x="655" y="711"/>
      <point x="820" y="566"/>
    </contour>
    <contour>
      <point x="743" y="349" type="curve" smooth="yes"/>
      <point x="743" y="536"/>
      <point x="613" y="640"/>
      <point x="438" y="640" type="curve" smooth="yes"/>
      <point x="263" y="640"/>
      <point x="135" y="538"/>
      <point x="135" y="351" type="curve" smooth="yes"/>
      <point x="135" y="164"/>
      <point x="265" y="60"/>
      <point x="440" y="60" type="curve" smooth="yes"/>
      <point x="615" y="60"/>
      <point x="743" y="162"/>
    </contour>
    <contour>
      <point x="622" y="283" type="line"/>
      <point x="607" y="229"/>
      <point x="563" y="156"/>
      <point x="447" y="156" type="curve" smooth="yes"/>
      <point x="343" y="156"/>
      <point x="251" y="214"/>
      <point x="251" y="354" type="curve" smooth="yes"/>
      <point x="251" y="494"/>
      <point x="342" y="553"/>
      <point x="449" y="553" type="curve" smooth="yes"/>
      <point x="551" y="553"/>
      <point x="601" y="504"/>
      <point x="618" y="405" type="curve"/>
      <point x="483" y="370" type="line"/>
      <point x="478" y="426"/>
      <point x="466" y="440"/>
      <point x="444" y="440" type="curve" smooth="yes"/>
      <point x="416" y="440"/>
      <point x="405" y="403"/>
      <point x="405" y="354" type="curve" smooth="yes"/>
      <point x="405" y="308"/>
      <point x="415" y="269"/>
      <point x="444" y="269" type="curve" smooth="yes"/>
      <point x="467" y="269"/>
      <point x="480" y="287"/>
      <point x="489" y="326" type="curve"/>
    </contour>
  </outline>
</glyph>
<glyph name="ordfeminine" format="1">
  <advance width="496"/>
  <unicode hex="00AA"/>
  <outline>
    <contour>
      <point x="466" y="276" type="line"/>
      <point x="270" y="276" type="line"/>
      <point x="274" y="301" type="line"/>
      <point x="237" y="281"/>
      <point x="199" y="267"/>
      <point x="161" y="267" type="curve" smooth="yes"/>
      <point x="86" y="267"/>
      <point x="47" y="316"/>
      <point x="47" y="387" type="curve" smooth="yes"/>
      <point x="47" y="487"/>
      <point x="112" y="546"/>
      <point x="211" y="546" type="curve" smooth="yes"/>
      <point x="250" y="546"/>
      <point x="289" y="540"/>
      <point x="315" y="531" type="curve"/>
      <point x="316" y="534" type="line"/>
      <point x="322" y="570"/>
      <point x="309" y="580"/>
      <point x="248" y="580" type="curve" smooth="yes"/>
      <point x="209" y="580"/>
      <point x="173" y="576"/>
      <point x="137" y="565" type="curve"/>
      <point x="125" y="689" type="line"/>
      <point x="176" y="703"/>
      <point x="227" y="711"/>
      <point x="307" y="711" type="curve" smooth="yes"/>
      <point x="429" y="711"/>
      <point x="515" y="682"/>
      <point x="515" y="577" type="curve" smooth="yes"/>
      <point x="515" y="564"/>
      <point x="514" y="549"/>
      <point x="511" y="533" type="curve" smooth="yes"/>
    </contour>
    <contour>
      <point x="290" y="387" type="curve"/>
      <point x="299" y="440" type="line"/>
      <point x="289" y="444"/>
      <point x="280" y="447"/>
      <point x="270" y="447" type="curve" smooth="yes"/>
      <point x="246" y="447"/>
      <point x="238" y="427"/>
      <point x="238" y="407" type="curve" smooth="yes"/>
      <point x="238" y="392"/>
      <point x="248" y="382"/>
      <point x="265" y="382" type="curve" smooth="yes"/>
      <point x="275" y="382"/>
      <point x="278" y="384"/>
    </contour>
  </outline>
</glyph>
<glyph name="guillemotleft" format="1">
  <advance width="722"/>
  <unicode hex="00AB"/>
  <outline>
    <contour>
      <point x="656" y="0" type="line"/>
      <point x="386" y="0" type="line"/>
      <point x="346" y="263" type="line"/>
      <point x="478" y="525" type="line"/>
      <point x="748" y="525" type="line"/>
      <point x="616" y="263" type="line"/>
    </contour>
    <contour>
      <point x="328" y="0" type="line"/>
      <point x="58" y="0" type="line"/>
      <point x="18" y="263" type="line"/>
      <point x="150" y="525" type="line"/>
      <point x="420" y="525" type="line"/>
      <point x="288" y="263" type="line"/>
    </contour>
  </outline>
</glyph>
<glyph name="degree" format="1">
  <advance width="526"/>
  <unicode hex="00B0"/>
  <outline>
    <contour>
      <point x="539" y="471" type="curve" smooth="yes"/>
      <point x="539" y="328"/>
      <point x="432" y="229"/>
      <point x="296" y="229" type="curve" smooth="yes"/>
      <point x="160" y="229"/>
      <point x="53" y="328"/>
      <point x="53" y="471" type="curve" smooth="yes"/>
      <point x="53" y="610"/>
      <point x="160" y="711"/>
      <point x="296" y="711" type="curve" smooth="yes"/>
      <point x="432" y="711"/>
      <point x="539" y="610"/>
    </contour>
    <contour>
      <point x="376" y="471" type="curve" smooth="yes"/>
      <point x="376" y="526"/>
      <point x="342" y="559"/>
      <point x="296" y="559" type="curve" smooth="yes"/>
      <point x="250" y="559"/>
      <point x="216" y="526"/>
      <point x="216" y="471" type="curve" smooth="yes"/>
      <point x="216" y="413"/>
      <point x="249" y="381"/>
      <point x="296" y="381" type="curve" smooth="yes"/>
      <point x="343" y="381"/>
      <point x="376" y="413"/>
    </contour>
  </outline>
</glyph>
<glyph name="acute" format="1">
  <advance width="500"/>
  <unicode hex="00B4"/>
  <outline>
    <contour>
      <point x="579" y="775" type="line"/>
      <point x="327" y="559" type="line"/>
      <point x="131" y="559" type="line"/>
      <point x="267" y="775" type="line"/>
    </contour>
  </outline>
</glyph>
<glyph name="paragraph" format="1">
  <advance width="720"/>
  <unicode hex="00B6"/>
  <outline>
    <contour>
      <point x="603" y="-185" type="line"/>
      <point x="449" y="-185" type="line"/>
      <point x="581" y="563" type="line"/>
      <point x="529" y="563" type="line"/>
      <point x="397" y="-185" type="line"/>
      <point x="243" y="-185" type="line"/>
      <point x="314" y="218" type="line"/>
      <point x="292" y="218" type="line" smooth="yes"/>
      <point x="153" y="218"/>
      <point x="53" y="300"/>
      <point x="53" y="431" type="curve" smooth="yes"/>
      <point x="53" y="611"/>
      <point x="181" y="700"/>
      <point x="348" y="700" type="curve" smooth="yes"/>
      <point x="759" y="700" type="line"/>
    </contour>
  </outline>
</glyph>
<glyph name="periodcentered" format="1">
  <advance width="360"/>
  <unicode hex="00B7"/>
  <outline>
    <contour>
      <point x="185" y="213" type="curve" smooth="yes"/>
      <point x="99" y="213"/>
      <point x="41" y="265"/>
      <point x="41" y="344" type="curve" smooth="yes"/>
      <point x="41" y="445"/>
      <point x="112" y="518"/>
      <point x="210" y="518" type="curve" smooth="yes"/>
      <point x="297" y="518"/>
      <point x="357" y="467"/>
      <point x="357" y="388" type="curve" smooth="yes"/>
      <point x="357" y="287"/>
      <point x="282" y="213"/>
    </contour>
  </outline>
</glyph>
<glyph name="cedilla" format="1">
  <advance width="500"/>
  <unicode hex="00B8"/>
  <outline>
    <contour>
      <point x="190" y="-203" type="curve" smooth="yes"/>
      <point x="113" y="-203"/>
      <point x="57" y="-183"/>
      <point x="9" y="-155" type="curve"/>
      <point x="49" y="-95" type="line"/>
      <point x="89" y="-116"/>
      <point x="121" y="-130"/>
      <point x="159" y="-130" type="curve" smooth="yes"/>
      <point x="185" y="-130"/>
      <point x="194" y="-122"/>
      <point x="194" y="-109" type="curve" smooth="yes"/>
      <point x="194" y="-98"/>
      <point x="185" y="-92"/>
      <point x="171" y="-92" type="curve" smooth="yes"/>
      <point x="157" y="-92"/>
      <point x="143" y="-99"/>
      <point x="134" y="-104" type="curve"/>
      <point x="101" y="-78" type="line"/>
      <point x="150" y="0" type="line"/>
      <point x="226" y="0" type="line"/>
      <point x="202" y="-38" type="line"/>
      <point x="212" y="-35"/>
      <point x="226" y="-33"/>
      <point x="239" y="-33" type="curve" smooth="yes"/>
      <point x="288" y="-33"/>
      <point x="326" y="-56"/>
      <point x="326" y="-101" type="curve" smooth="yes"/>
      <point x="326" y="-168"/>
      <point x="265" y="-203"/>
    </contour>
  </outline>
</glyph>
<glyph name="ordmasculine" format="1">
  <advance width="502"/>
  <unicode hex="00BA"/>
  <outline>
    <contour>
      <point x="275" y="268" type="curve" smooth="yes"/>
      <point x="148" y="268"/>
      <point x="54" y="334"/>
      <point x="54" y="456" type="curve" smooth="yes"/>
      <point x="54" y="594"/>
      <point x="144" y="711"/>
      <point x="305" y="711" type="curve" smooth="yes"/>
      <point x="432" y="711"/>
      <point x="526" y="645"/>
      <point x="526" y="523" type="curve" smooth="yes"/>
      <point x="526" y="385"/>
      <point x="436" y="268"/>
    </contour>
    <contour>
      <point x="330" y="532" type="curve" smooth="yes"/>
      <point x="330" y="562"/>
      <point x="321" y="575"/>
      <point x="302" y="575" type="curve" smooth="yes"/>
      <point x="265" y="575"/>
      <point x="250" y="489"/>
      <point x="250" y="447" type="curve" smooth="yes"/>
      <point x="250" y="417"/>
      <point x="259" y="404"/>
      <point x="278" y="404" type="curve" smooth="yes"/>
      <point x="315" y="404"/>
      <point x="330" y="490"/>
    </contour>
  </outline>
</glyph>
<glyph name="guillemotright" format="1">
  <advance width="722"/>
  <unicode hex="00BB"/>
  <outline>
    <contour>
      <point x="704" y="263" type="line"/>
      <point x="572" y="0" type="line"/>
      <point x="302" y="0" type="line"/>
      <point x="434" y="263" type="line"/>
      <point x="394" y="525" type="line"/>
      <point x="664" y="525" type="line"/>
    </contour>
    <contour>
      <point x="376" y="263" type="line"/>
      <point x="244" y="0" type="line"/>
      <point x="-26" y="0" type="line"/>
      <point x="106" y="263" type="line"/>
      <point x="66" y="525" type="line"/>
      <point x="336" y="525" type="line"/>
    </contour>
  </outline>
</glyph>
<glyph name="questiondown" format="1">
  <advance width="608"/>
  <unicode hex="00BF"/>
  <outline>
    <contour>
      <point x="398" y="711" type="curve" smooth="yes"/>
      <point x="480" y="711"/>
      <point x="547" y="671"/>
      <point x="547" y="595" type="curve" smooth="yes"/>
      <point x="547" y="502"/>
      <point x="472" y="453"/>
      <point x="382" y="453" type="curve" smooth="yes"/>
      <point x="298" y="453"/>
      <point x="233" y="493"/>
      <point x="233" y="566" type="curve" smooth="yes"/>
      <point x="233" y="643"/>
      <point x="293" y="711"/>
    </contour>
    <contour>
      <point x="242" y="428" type="curve"/>
      <point x="478" y="428" type="line"/>
      <point x="468" y="323"/>
      <point x="414" y="268"/>
      <point x="304" y="232" type="curve" smooth="yes"/>
      <point x="262" y="218"/>
      <point x="259" y="214"/>
      <point x="259" y="205" type="curve" smooth="yes"/>
      <point x="259" y="194"/>
      <point x="268" y="190"/>
      <point x="306" y="190" type="curve" smooth="yes"/>
      <point x="379" y="190"/>
      <point x="467" y="217"/>
      <point x="510" y="239" type="curve"/>
      <point x="581" y="59" type="line"/>
      <point x="481" y="11"/>
      <point x="384" y="-10"/>
      <point x="281" y="-10" type="curve" smooth="yes"/>
      <point x="118" y="-10"/>
      <point x="-12" y="39"/>
      <point x="-12" y="153" type="curve" smooth="yes"/>
      <point x="-12" y="276"/>
      <point x="63" y="319"/>
      <point x="129" y="348" type="curve" smooth="yes"/>
      <point x="203" y="381"/>
      <point x="228" y="387"/>
    </contour>
  </outline>
</glyph>
<glyph name="Aring" format="1">
  <advance width="760"/>
  <unicode hex="00C5"/>
  <outline>
    <contour>
      <point x="300" y="687" type="line"/>
      <point x="290" y="709"/>
      <point x="284" y="734"/>
      <point x="284" y="761" type="curve" smooth="yes"/>
      <point x="284" y="862"/>
      <point x="365" y="940"/>
      <point x="466" y="940" type="curve" smooth="yes"/>
      <point x="567" y="940"/>
      <point x="648" y="862"/>
      <point x="648" y="761" type="curve" smooth="yes"/>
      <point x="648" y="722"/>
      <point x="636" y="687"/>
      <point x="616" y="658" type="curve"/>
      <point x="708" y="0" type="line"/>
      <point x="437" y="0" type="line"/>
      <point x="430" y="81" type="line"/>
      <point x="264" y="81" type="line"/>
      <point x="229" y="0" type="line"/>
      <point x="-40" y="0" type="line"/>
    </contour>
    <contour>
      <point x="525" y="761" type="curve" smooth="yes"/>
      <point x="525" y="799"/>
      <point x="502" y="825"/>
      <point x="466" y="825" type="curve" smooth="yes"/>
      <point x="430" y="825"/>
      <point x="407" y="799"/>
      <point x="407" y="761" type="curve" smooth="yes"/>
      <point x="407" y="723"/>
      <point x="430" y="698"/>
      <point x="466" y="698" type="curve" smooth="yes"/>
      <point x="502" y="698"/>
      <point x="525" y="723"/>
    </contour>
    <contour>
      <point x="416" y="264" type="line"/>
      <point x="413" y="370"/>
      <point x="413" y="421"/>
      <point x="416" y="471" type="curve"/>
      <point x="401" y="422"/>
      <point x="373" y="343"/>
      <point x="343" y="264" type="curve"/>
    </contour>
  </outline>
</glyph>
<glyph name="AE" format="1">
  <advance width="1149"/>
  <unicode hex="00C6"/>
  <outline>
    <contour>
      <point x="1066" y="0" type="line"/>
      <point x="476" y="0" type="line"/>
      <point x="490" y="81" type="line"/>
      <point x="288" y="81" type="line"/>
      <point x="236" y="0" type="line"/>
      <point x="-52" y="0" type="line"/>
      <point x="441" y="700" type="line"/>
      <point x="1187" y="700" type="line"/>
      <point x="1153" y="506" type="line"/>
      <point x="830" y="506" type="line"/>
      <point x="819" y="446" type="line"/>
      <point x="1049" y="446" type="line"/>
      <point x="1016" y="255" type="line"/>
      <point x="786" y="255" type="line"/>
      <point x="775" y="194" type="line"/>
      <point x="1100" y="194" type="line"/>
    </contour>
    <contour>
      <point x="569" y="519" type="line"/>
      <point x="549" y="482"/>
      <point x="536" y="460"/>
      <point x="498" y="402" type="curve" smooth="yes"/>
      <point x="407" y="264" type="line"/>
      <point x="522" y="264" type="line"/>
    </contour>
  </outline>
</glyph>
<glyph name="Ccedilla" format="1">
  <advance width="701"/>
  <unicode hex="00C7"/>
  <outline>
    <contour>
      <point x="279" y="-3" type="line"/>
      <point x="137" y="21"/>
      <point x="31" y="110"/>
      <point x="31" y="283" type="curve" smooth="yes"/>
      <point x="31" y="511"/>
      <point x="156" y="710"/>
      <point x="424" y="710" type="curve" smooth="yes"/>
      <point x="643" y="710"/>
      <point x="723" y="605"/>
      <point x="719" y="420" type="curve"/>
      <point x="463" y="373" type="line"/>
      <point x="471" y="480"/>
      <point x="455" y="508"/>
      <point x="413" y="508" type="curve" smooth="yes"/>
      <point x="348" y="508"/>
      <point x="312" y="373"/>
      <point x="312" y="279" type="curve" smooth="yes"/>
      <point x="312" y="227"/>
      <point x="329" y="192"/>
      <point x="366" y="192" type="curve" smooth="yes"/>
      <point x="406" y="192"/>
      <point x="433" y="229"/>
      <point x="459" y="295" type="curve"/>
      <point x="687" y="201" type="line"/>
      <point x="637" y="93"/>
      <point x="554" y="-11"/>
      <point x="370" y="-11" type="curve" smooth="yes"/>
      <point x="363" y="-11"/>
      <point x="357" y="-11"/>
      <point x="350" y="-11" type="curve"/>
      <point x="333" y="-38" type="line"/>
      <point x="343" y="-35"/>
      <point x="357" y="-33"/>
      <point x="370" y="-33" type="curve" smooth="yes"/>
      <point x="419" y="-33"/>
      <point x="457" y="-56"/>
      <point x="457" y="-101" type="curve" smooth="yes"/>
      <point x="457" y="-168"/>
      <point x="396" y="-203"/>
      <point x="321" y="-203" type="curve" smooth="yes"/>
      <point x="244" y="-203"/>
      <point x="188" y="-183"/>
      <point x="140" y="-155" type="curve"/>
      <point x="180" y="-95" type="line"/>
      <point x="220" y="-116"/>
      <point x="252" y="-130"/>
      <point x="290" y="-130" type="curve" smooth="yes"/>
      <point x="316" y="-130"/>
      <point x="325" y="-122"/>
      <point x="325" y="-109" type="curve" smooth="yes"/>
      <point x="325" y="-98"/>
      <point x="316" y="-92"/>
      <point x="302" y="-92" type="curve" smooth="yes"/>
      <point x="288" y="-92"/>
      <point x="274" y="-99"/>
      <point x="265" y="-104" type="curve"/>
      <point x="232" y="-78" type="line"/>
    </contour>
  </outline>
</glyph>
<glyph name="Eth" format="1">
  <advance width="759"/>
  <unicode hex="00D0"/>
  <outline>
    <contour>
      <point x="68" y="260" type="line"/>
      <point x="15" y="260" type="line"/>
      <point x="48" y="450" type="line"/>
      <point x="102" y="450" type="line"/>
      <point x="146" y="700" type="line"/>
      <point x="430" y="700" type="line" smooth="yes"/>
      <point x="630" y="700"/>
      <point x="760" y="615"/>
      <point x="760" y="430" type="curve" smooth="yes"/>
      <point x="760" y="108"/>
      <point x="553" y="0"/>
      <point x="352" y="0" type="curve" smooth="yes"/>
      <point x="22" y="0" type="line"/>
    </contour>
    <contour>
      <point x="355" y="450" type="curve"/>
      <point x="433" y="450" type="line"/>
      <point x="400" y="260" type="line"/>
      <point x="322" y="260" type="line"/>
      <point x="312" y="202" type="line"/>
      <point x="354" y="202" type="line" smooth="yes"/>
      <point x="416" y="202"/>
      <point x="456" y="224"/>
      <point x="476" y="340" type="curve" smooth="yes"/>
      <point x="480" y="364"/>
      <point x="482" y="384"/>
      <point x="482" y="402" type="curve" smooth="yes"/>
      <point x="482" y="471"/>
      <point x="452" y="498"/>
      <point x="398" y="498" type="curve" smooth="yes"/>
      <point x="364" y="498" type="line"/>
      <point x="364" y="498"/>
      <point x="356" y="450"/>
    </contour>
  </outline>
</glyph>
<glyph name="Oslash" format="1">
  <advance width="760"/>
  <unicode hex="00D8"/>
  <outline>
    <contour>
      <point x="241" y="5" type="curve"/>
      <point x="197" y="-50" type="line"/>
      <point x="-61" y="-50" type="line"/>
      <point x="76" y="117" type="line"/>
      <point x="47" y="161"/>
      <point x="31" y="216"/>
      <point x="31" y="284" type="curve" smooth="yes"/>
      <point x="31" y="515"/>
      <point x="161" y="710"/>
      <point x="424" y="710" type="curve" smooth="yes"/>
      <point x="466" y="710"/>
      <point x="507" y="705"/>
      <point x="544" y="696" type="curve"/>
      <point x="588" y="750" type="line"/>
      <point x="846" y="750" type="line"/>
      <point x="712" y="586" type="line"/>
      <point x="743" y="541"/>
      <point x="760" y="484"/>
      <point x="760" y="413" type="curve" smooth="yes"/>
      <point x="760" y="179"/>
      <point x="624" y="-11"/>
      <point x="370" y="-11" type="curve" smooth="yes"/>
      <point x="324" y="-11"/>
      <point x="281" y="-6"/>
    </contour>
    <contour>
      <point x="480" y="422" type="curve" smooth="yes"/>
      <point x="480" y="489"/>
      <point x="450" y="506"/>
      <point x="417" y="506" type="curve" smooth="yes"/>
      <point x="342" y="506"/>
      <point x="312" y="384"/>
      <point x="312" y="281" type="curve" smooth="yes"/>
      <point x="312" y="212"/>
      <point x="340" y="193"/>
      <point x="373" y="193" type="curve" smooth="yes"/>
      <point x="448" y="193"/>
      <point x="481" y="319"/>
    </contour>
  </outline>
</glyph>
<glyph name="Thorn" format="1">
  <advance width="688"/>
  <unicode hex="00DE"/>
  <outline>
    <contour>
      <point x="290" y="101" type="line"/>
      <point x="272" y="0" type="line"/>
      <point x="-8" y="0" type="line"/>
      <point x="115" y="700" type="line"/>
      <point x="395" y="700" type="line"/>
      <point x="381" y="619" type="line"/>
      <point x="414" y="619" type="line" smooth="yes"/>
      <point x="593" y="619"/>
      <point x="697" y="542"/>
      <point x="697" y="400" type="curve" smooth="yes"/>
      <point x="697" y="172"/>
      <point x="536" y="101"/>
      <point x="361" y="101" type="curve" smooth="yes"/>
    </contour>
    <contour>
      <point x="431" y="373" type="curve" smooth="yes"/>
      <point x="431" y="406"/>
      <point x="408" y="424"/>
      <point x="368" y="424" type="curve" smooth="yes"/>
      <point x="342" y="424" type="line"/>
      <point x="320" y="296" type="line"/>
      <point x="357" y="296" type="line" smooth="yes"/>
      <point x="393" y="296"/>
      <point x="431" y="321"/>
    </contour>
  </outline>
</glyph>
<glyph name="germandbls" format="1">
  <advance width="651"/>
  <unicode hex="00DF"/>
  <outline>
    <contour>
      <point x="291" y="0" type="curve" smooth="yes"/>
      <point x="276" y="0" type="line"/>
      <point x="306" y="168" type="line"/>
      <point x="317" y="168" type="line" smooth="yes"/>
      <point x="369" y="168"/>
      <point x="384" y="206"/>
      <point x="384" y="249" type="curve" smooth="yes"/>
      <point x="384" y="282"/>
      <point x="367" y="294"/>
      <point x="332" y="294" type="curve" smooth="yes"/>
      <point x="328" y="294" type="line"/>
      <point x="357" y="457" type="line"/>
      <point x="363" y="457" type="line" smooth="yes"/>
      <point x="402" y="457"/>
      <point x="417" y="481"/>
      <point x="417" y="524" type="curve" smooth="yes"/>
      <point x="417" y="546"/>
      <point x="407" y="561"/>
      <point x="382" y="561" type="curve" smooth="yes"/>
      <point x="353" y="561"/>
      <point x="340" y="539"/>
      <point x="333" y="501" type="curve" smooth="yes"/>
      <point x="226" y="-107" type="line"/>
      <point x="-49" y="-193" type="line"/>
      <point x="68" y="471" type="line" smooth="yes"/>
      <point x="102" y="664"/>
      <point x="209" y="726"/>
      <point x="381" y="726" type="curve" smooth="yes"/>
      <point x="561" y="726"/>
      <point x="650" y="663"/>
      <point x="650" y="562" type="curve" smooth="yes"/>
      <point x="650" y="474"/>
      <point x="600" y="429"/>
      <point x="539" y="402" type="curve"/>
      <point x="593" y="375"/>
      <point x="631" y="330"/>
      <point x="631" y="259" type="curve" smooth="yes"/>
      <point x="631" y="80"/>
      <point x="507" y="0"/>
    </contour>
  </outline>
</glyph>
<glyph name="ae" format="1">
  <advance width="891"/>
  <unicode hex="00E6"/>
  <outline>
    <contour>
      <point x="393" y="51" type="curve"/>
      <point x="331" y="18"/>
      <point x="254" y="-11"/>
      <point x="155" y="-11" type="curve" smooth="yes"/>
      <point x="44" y="-11"/>
      <point x="-11" y="35"/>
      <point x="-11" y="128" type="curve" smooth="yes"/>
      <point x="-11" y="274"/>
      <point x="94" y="330"/>
      <point x="192" y="330" type="curve" smooth="yes"/>
      <point x="240" y="330"/>
      <point x="288" y="320"/>
      <point x="323" y="304" type="curve"/>
      <point x="325" y="318" type="line" smooth="yes"/>
      <point x="333" y="374"/>
      <point x="299" y="379"/>
      <point x="244" y="379" type="curve" smooth="yes"/>
      <point x="200" y="379"/>
      <point x="160" y="374"/>
      <point x="105" y="359" type="curve"/>
      <point x="89" y="511" type="line"/>
      <point x="146" y="527"/>
      <point x="208" y="536"/>
      <point x="288" y="536" type="curve" smooth="yes"/>
      <point x="384" y="536"/>
      <point x="456" y="523"/>
      <point x="498" y="488" type="curve"/>
      <point x="539" y="518"/>
      <point x="587" y="536"/>
      <point x="640" y="536" type="curve" smooth="yes"/>
      <point x="771" y="536"/>
      <point x="879" y="475"/>
      <point x="879" y="311" type="curve" smooth="yes"/>
      <point x="879" y="280"/>
      <point x="875" y="238"/>
      <point x="867" y="203" type="curve"/>
      <point x="546" y="203" type="line"/>
      <point x="559" y="152"/>
      <point x="589" y="141"/>
      <point x="667" y="141" type="curve" smooth="yes"/>
      <point x="714" y="141"/>
      <point x="760" y="149"/>
      <point x="804" y="164" type="curve"/>
      <point x="837" y="22" type="line"/>
      <point x="769" y="-1"/>
      <point x="712" y="-11"/>
      <point x="613" y="-11" type="curve" smooth="yes"/>
      <point x="514" y="-11"/>
      <point x="444" y="14"/>
    </contour>
    <contour>
      <point x="674" y="324" type="line"/>
      <point x="674" y="366"/>
      <point x="661" y="387"/>
      <point x="625" y="387" type="curve" smooth="yes"/>
      <point x="587" y="387"/>
      <point x="567" y="361"/>
      <point x="558" y="324" type="curve"/>
    </contour>
    <contour>
      <point x="293" y="132" type="curve"/>
      <point x="305" y="202" type="line"/>
      <point x="292" y="209"/>
      <point x="277" y="213"/>
      <point x="262" y="213" type="curve" smooth="yes"/>
      <point x="235" y="213"/>
      <point x="221" y="187"/>
      <point x="221" y="158" type="curve" smooth="yes"/>
      <point x="221" y="136"/>
      <point x="235" y="126"/>
      <point x="256" y="126" type="curve" smooth="yes"/>
      <point x="268" y="126"/>
      <point x="280" y="128"/>
    </contour>
  </outline>
</glyph>
<glyph name="ccedilla" format="1">
  <advance width="567"/>
  <unicode hex="00E7"/>
  <outline>
    <contour>
      <point x="197" y="-3" type="line"/>
      <point x="86" y="21"/>
      <point x="11" y="93"/>
      <point x="11" y="214" type="curve" smooth="yes"/>
      <point x="11" y="411"/>
      <point x="133" y="536"/>
      <point x="315" y="536" type="curve" smooth="yes"/>
      <point x="481" y="536"/>
      <point x="558" y="459"/>
      <point x="570" y="319" type="curve"/>
      <point x="347" y="284" type="line"/>
      <point x="350" y="345"/>
      <point x="341" y="364"/>
      <point x="314" y="364" type="curve" smooth="yes"/>
      <point x="267" y="364"/>
      <point x="252" y="247"/>
      <point x="252" y="210" type="curve" smooth="yes"/>
      <point x="252" y="174"/>
      <point x="265" y="161"/>
      <point x="287" y="161" type="curve" smooth="yes"/>
      <point x="306" y="161"/>
      <point x="327" y="176"/>
      <point x="344" y="224" type="curve"/>
      <point x="538" y="153" type="line"/>
      <point x="487" y="52"/>
      <point x="398" y="-11"/>
      <point x="283" y="-11" type="curve" smooth="yes"/>
      <point x="278" y="-11"/>
      <point x="273" y="-11"/>
      <point x="268" y="-11" type="curve"/>
      <point x="251" y="-38" type="line"/>
      <point x="261" y="-35"/>
      <point x="275" y="-33"/>
      <point x="288" y="-33" type="curve" smooth="yes"/>
      <point x="337" y="-33"/>
      <point x="375" y="-56"/>
      <point x="375" y="-101" type="curve" smooth="yes"/>
      <point x="375" y="-168"/>
      <point x="314" y="-203"/>
      <point x="239" y="-203" type="curve" smooth="yes"/>
      <point x="162" y="-203"/>
      <point x="106" y="-183"/>
      <point x="58" y="-155" type="curve"/>
      <point x="98" y="-95" type="line"/>
      <point x="138" y="-116"/>
      <point x="170" y="-130"/>
      <point x="208" y="-130" type="curve" smooth="yes"/>
      <point x="234" y="-130"/>
      <point x="243" y="-122"/>
      <point x="243" y="-109" type="curve" smooth="yes"/>
      <point x="243" y="-98"/>
      <point x="234" y="-92"/>
      <point x="220" y="-92" type="curve" smooth="yes"/>
      <point x="206" y="-92"/>
      <point x="192" y="-99"/>
      <point x="183" y="-104" type="curve"/>
      <point x="150" y="-78" type="line"/>
    </contour>
  </outline>
</glyph>
<glyph name="eth" format="1">
  <advance width="606"/>
  <unicode hex="00F0"/>
  <outline>
    <contour>
      <point x="416" y="659" type="curve"/>
      <point x="474" y="711" type="line"/>
      <point x="604" y="600" type="line"/>
      <point x="542" y="546" type="line"/>
      <point x="577" y="492"/>
      <point x="597" y="424"/>
      <point x="597" y="338" type="curve" smooth="yes"/>
      <point x="597" y="166"/>
      <point x="522" y="-11"/>
      <point x="284" y="-11" type="curve" smooth="yes"/>
      <point x="127" y="-11"/>
      <point x="6" y="55"/>
      <point x="6" y="201" type="curve" smooth="yes"/>
      <point x="6" y="356"/>
      <point x="102" y="456"/>
      <point x="256" y="456" type="curve" smooth="yes"/>
      <point x="307" y="456"/>
      <point x="367" y="442"/>
      <point x="393" y="425" type="curve"/>
      <point x="361" y="482"/>
      <point x="290" y="519"/>
      <point x="187" y="526" type="curve"/>
      <point x="220" y="712" type="line"/>
      <point x="291" y="706"/>
      <point x="358" y="690"/>
    </contour>
    <contour>
      <point x="343" y="243" type="curve" smooth="yes"/>
      <point x="343" y="269"/>
      <point x="332" y="288"/>
      <point x="303" y="288" type="curve" smooth="yes"/>
      <point x="266" y="288"/>
      <point x="249" y="246"/>
      <point x="249" y="202" type="curve" smooth="yes"/>
      <point x="249" y="176"/>
      <point x="260" y="157"/>
      <point x="289" y="157" type="curve" smooth="yes"/>
      <point x="326" y="157"/>
      <point x="343" y="199"/>
    </contour>
  </outline>
</glyph>
<glyph name="oslash" format="1">
  <advance width="606"/>
  <unicode hex="00F8"/>
  <outline>
    <contour>
      <point x="195" y="-2" type="curve"/>
      <point x="156" y="-50" type="line"/>
      <point x="-57" y="-50" type="line"/>
      <point x="50" y="82" type="line"/>
      <point x="25" y="116"/>
      <point x="11" y="158"/>
      <point x="11" y="211" type="curve" smooth="yes"/>
      <point x="11" y="385"/>
      <point x="105" y="536"/>
      <point x="319" y="536" type="curve" smooth="yes"/>
      <point x="350" y="536"/>
      <point x="380" y="533"/>
      <point x="408" y="527" type="curve"/>
      <point x="447" y="575" type="line"/>
      <point x="660" y="575" type="line"/>
      <point x="554" y="445" type="line"/>
      <point x="580" y="411"/>
      <point x="595" y="368"/>
      <point x="595" y="314" type="curve" smooth="yes"/>
      <point x="595" y="107"/>
      <point x="469" y="-11"/>
      <point x="288" y="-11" type="curve" smooth="yes"/>
      <point x="255" y="-11"/>
      <point x="224" y="-8"/>
    </contour>
    <contour>
      <point x="354" y="318" type="curve" smooth="yes"/>
      <point x="354" y="358"/>
      <point x="341" y="368"/>
      <point x="316" y="368" type="curve" smooth="yes"/>
      <point x="268" y="368"/>
      <point x="253" y="250"/>
      <point x="253" y="206" type="curve" smooth="yes"/>
      <point x="253" y="166"/>
      <point x="266" y="156"/>
      <point x="291" y="156" type="curve" smooth="yes"/>
      <point x="339" y="156"/>
      <point x="354" y="274"/>
    </contour>
  </outline>
</glyph>
<glyph name="Lslash" format="1">
  <advance width="641"/>
  <unicode hex="0141"/>
  <outline>
    <contour>
      <point x="571" y="0" type="line"/>
      <point x="22" y="0" type="line"/>
      <point x="52" y="171" type="line"/>
      <point x="-6" y="143" type="line"/>
      <point x="33" y="361" type="line"/>
      <point x="91" y="389" type="line"/>
      <point x="146" y="700" type="line"/>
      <point x="424" y="700" type="line"/>
      <point x="395" y="537" type="line"/>
      <point x="522" y="599" type="line"/>
      <point x="483" y="381" type="line"/>
      <point x="356" y="319" type="line"/>
      <point x="340" y="224" type="line"/>
      <point x="611" y="224" type="line"/>
    </contour>
  </outline>
</glyph>
<glyph name="lslash" format="1">
  <advance width="392"/>
  <unicode hex="0142"/>
  <outline>
    <contour>
      <point x="388" y="314" type="line"/>
      <point x="331" y="289" type="line"/>
      <point x="280" y="0" type="line"/>
      <point x="20" y="0" type="line"/>
      <point x="49" y="163" type="line"/>
      <point x="-9" y="138" type="line"/>
      <point x="31" y="366" type="line"/>
      <point x="89" y="391" type="line"/>
      <point x="134" y="649" type="line"/>
      <point x="409" y="735" type="line"/>
      <point x="371" y="516" type="line"/>
      <point x="428" y="542" type="line"/>
    </contour>
  </outline>
</glyph>
<glyph name="OE" format="1">
  <advance width="1111"/>
  <unicode hex="0152"/>
  <outline>
    <contour>
      <point x="639" y="641" type="curve"/>
      <point x="650" y="700" type="line"/>
      <point x="1160" y="700" type="line"/>
      <point x="1126" y="506" type="line"/>
      <point x="819" y="506" type="line"/>
      <point x="808" y="446" type="line"/>
      <point x="1022" y="446" type="line"/>
      <point x="988" y="255" type="line"/>
      <point x="774" y="255" type="line"/>
      <point x="763" y="194" type="line"/>
      <point x="1072" y="194" type="line"/>
      <point x="1038" y="0" type="line"/>
      <point x="526" y="0" type="line"/>
      <point x="535" y="51" type="line"/>
      <point x="484" y="13"/>
      <point x="432" y="-11"/>
      <point x="350" y="-11" type="curve" smooth="yes"/>
      <point x="161" y="-11"/>
      <point x="31" y="78"/>
      <point x="31" y="284" type="curve" smooth="yes"/>
      <point x="31" y="515"/>
      <point x="161" y="710"/>
      <point x="424" y="710" type="curve" smooth="yes"/>
      <point x="507" y="710"/>
      <point x="576" y="694"/>
    </contour>
    <contour>
      <point x="480" y="422" type="curve" smooth="yes"/>
      <point x="480" y="489"/>
      <point x="450" y="506"/>
      <point x="417" y="506" type="curve" smooth="yes"/>
      <point x="342" y="506"/>
      <point x="312" y="384"/>
      <point x="312" y="281" type="curve" smooth="yes"/>
      <point x="312" y="212"/>
      <point x="340" y="193"/>
      <point x="373" y="193" type="curve" smooth="yes"/>
      <point x="448" y="193"/>
      <point x="481" y="319"/>
    </contour>
  </outline>
</glyph>
<glyph name="oe" format="1">
  <advance width="921"/>
  <unicode hex="0153"/>
  <outline>
    <contour>
      <point x="445" y="42" type="curve"/>
      <point x="401" y="9"/>
      <point x="345" y="-11"/>
      <point x="278" y="-11" type="curve" smooth="yes"/>
      <point x="117" y="-11"/>
      <point x="11" y="60"/>
      <point x="11" y="211" type="curve" smooth="yes"/>
      <point x="11" y="385"/>
      <point x="105" y="536"/>
      <point x="319" y="536" type="curve" smooth="yes"/>
      <point x="392" y="536"/>
      <point x="451" y="515"/>
      <point x="490" y="476" type="curve"/>
      <point x="539" y="514"/>
      <point x="599" y="536"/>
      <point x="670" y="536" type="curve" smooth="yes"/>
      <point x="801" y="536"/>
      <point x="909" y="475"/>
      <point x="909" y="311" type="curve" smooth="yes"/>
      <point x="909" y="280"/>
      <point x="905" y="238"/>
      <point x="897" y="203" type="curve"/>
      <point x="576" y="203" type="line"/>
      <point x="589" y="152"/>
      <point x="619" y="141"/>
      <point x="697" y="141" type="curve" smooth="yes"/>
      <point x="744" y="141"/>
      <point x="790" y="149"/>
      <point x="834" y="164" type="curve"/>
      <point x="867" y="22" type="line"/>
      <point x="799" y="-1"/>
      <point x="741" y="-11"/>
      <point x="653" y="-11" type="curve" smooth="yes"/>
      <point x="559" y="-11"/>
      <point x="492" y="9"/>
    </contour>
    <contour>
      <point x="704" y="324" type="line"/>
      <point x="704" y="366"/>
      <point x="691" y="387"/>
      <point x="655" y="387" type="curve" smooth="yes"/>
      <point x="617" y="387"/>
      <point x="597" y="361"/>
      <point x="588" y="324" type="curve"/>
    </contour>
    <contour>
      <point x="354" y="318" type="curve" smooth="yes"/>
      <point x="354" y="358"/>
      <point x="341" y="368"/>
      <point x="316" y="368" type="curve" smooth="yes"/>
      <point x="268" y="368"/>
      <point x="253" y="250"/>
      <point x="253" y="206" type="curve" smooth="yes"/>
      <point x="253" y="166"/>
      <point x="266" y="156"/>
      <point x="291" y="156" type="curve" smooth="yes"/>
      <point x="339" y="156"/>
      <point x="354" y="274"/>
    </contour>
  </outline>
</glyph>
<glyph name="florin" format="1">
  <advance width="458"/>
  <unicode hex="0192"/>
  <outline>
    <contour>
      <point x="476" y="532" type="line"/>
      <point x="461" y="541"/>
      <point x="444" y="547"/>
      <point x="426" y="547" type="curve" smooth="yes"/>
      <point x="402" y="547"/>
      <point x="391" y="537"/>
      <point x="386" y="511" type="curve" smooth="yes"/>
      <point x="384" y="500" type="line"/>
      <point x="466" y="500" type="line"/>
      <point x="436" y="326" type="line"/>
      <point x="360" y="326" type="line"/>
      <point x="284" y="-106" type="line"/>
      <point x="3" y="-193" type="line"/>
      <point x="95" y="326" type="line"/>
      <point x="33" y="326" type="line"/>
      <point x="63" y="500" type="line"/>
      <point x="125" y="500" type="line"/>
      <point x="133" y="542" type="line" smooth="yes"/>
      <point x="156" y="662"/>
      <point x="212" y="711"/>
      <point x="339" y="711" type="curve" smooth="yes"/>
      <point x="414" y="711"/>
      <point x="477" y="694"/>
      <point x="503" y="684" type="curve"/>
    </contour>
  </outline>
</glyph>
<glyph name="circumflex" format="1">
  <advance width="500"/>
  <unicode hex="02C6"/>
  <outline>
    <contour>
      <point x="567" y="559" type="line"/>
      <point x="365" y="559" type="line"/>
      <point x="314" y="625" type="line"/>
      <point x="239" y="559" type="line"/>
      <point x="37" y="559" type="line"/>
      <point x="246" y="779" type="line"/>
      <point x="436" y="779" type="line"/>
    </contour>
  </outline>
</glyph>
<glyph name="caron" format="1">
  <advance width="500"/>
  <unicode hex="02C7"/>
  <outline>
    <contour>
      <point x="76" y="779" type="line"/>
      <point x="278" y="779" type="line"/>
      <point x="329" y="713" type="line"/>
      <point x="404" y="779" type="line"/>
      <point x="606" y="779" type="line"/>
      <point x="397" y="559" type="line"/>
      <point x="207" y="559" type="line"/>
    </contour>
  </outline>
</glyph>
<glyph name="breve" format="1">
  <advance width="500"/>
  <unicode hex="02D8"/>
  <outline>
    <contour>
      <point x="569" y="775" type="line"/>
      <point x="524" y="626"/>
      <point x="447" y="556"/>
      <point x="321" y="556" type="curve" smooth="yes"/>
      <point x="188" y="556"/>
      <point x="115" y="610"/>
      <point x="111" y="775" type="curve"/>
      <point x="275" y="775" type="line"/>
      <point x="279" y="729"/>
      <point x="298" y="714"/>
      <point x="335" y="714" type="curve" smooth="yes"/>
      <point x="375" y="714"/>
      <point x="394" y="741"/>
      <point x="406" y="775" type="curve"/>
    </contour>
  </outline>
</glyph>
<glyph name="dotaccent" format="1">
  <advance width="500"/>
  <unicode hex="02D9"/>
  <outline>
    <contour>
      <point x="311" y="551" type="curve" smooth="yes"/>
      <point x="245" y="551"/>
      <point x="191" y="603"/>
      <point x="191" y="667" type="curve" smooth="yes"/>
      <point x="191" y="741"/>
      <point x="259" y="803"/>
      <point x="336" y="803" type="curve" smooth="yes"/>
      <point x="400" y="803"/>
      <point x="453" y="754"/>
      <point x="453" y="690" type="curve" smooth="yes"/>
      <point x="453" y="626"/>
      <point x="395" y="551"/>
    </contour>
  </outline>
</glyph>
<glyph name="ring" format="1">
  <advance width="500"/>
  <unicode hex="02DA"/>
  <outline>
    <contour>
      <point x="466" y="693" type="curve" smooth="yes"/>
      <point x="466" y="614"/>
      <point x="403" y="555"/>
      <point x="324" y="555" type="curve" smooth="yes"/>
      <point x="245" y="555"/>
      <point x="182" y="614"/>
      <point x="182" y="693" type="curve" smooth="yes"/>
      <point x="182" y="772"/>
      <point x="245" y="832"/>
      <point x="324" y="832" type="curve" smooth="yes"/>
      <point x="403" y="832"/>
      <point x="466" y="772"/>
    </contour>
    <contour>
      <point x="373" y="693" type="curve" smooth="yes"/>
      <point x="373" y="725"/>
      <point x="354" y="747"/>
      <point x="324" y="747" type="curve" smooth="yes"/>
      <point x="294" y="747"/>
      <point x="275" y="725"/>
      <point x="275" y="693" type="curve" smooth="yes"/>
      <point x="275" y="661"/>
      <point x="294" y="640"/>
      <point x="324" y="640" type="curve" smooth="yes"/>
      <point x="354" y="640"/>
      <point x="373" y="661"/>
    </contour>
  </outline>
</glyph>
<glyph name="ogonek" format="1">
  <advance width="500"/>
  <unicode hex="02DB"/>
  <outline>
    <contour>
      <point x="330" y="-155" type="line"/>
      <point x="285" y="-179"/>
      <point x="237" y="-193"/>
      <point x="179" y="-193" type="curve" smooth="yes"/>
      <point x="105" y="-193"/>
      <point x="60" y="-170"/>
      <point x="60" y="-126" type="curve" smooth="yes"/>
      <point x="60" y="-83"/>
      <point x="98" y="-42"/>
      <point x="162" y="0" type="curve"/>
      <point x="268" y="0" type="line"/>
      <point x="229" y="-49"/>
      <point x="218" y="-70"/>
      <point x="218" y="-87" type="curve" smooth="yes"/>
      <point x="218" y="-100"/>
      <point x="227" y="-107"/>
      <point x="241" y="-107" type="curve" smooth="yes"/>
      <point x="261" y="-107"/>
      <point x="281" y="-103"/>
      <point x="316" y="-91" type="curve"/>
    </contour>
  </outline>
</glyph>
<glyph name="tilde" format="1">
  <advance width="500"/>
  <unicode hex="02DC"/>
  <outline>
    <contour>
      <point x="602" y="779" type="line"/>
      <point x="575" y="623"/>
      <point x="514" y="557"/>
      <point x="409" y="557" type="curve" smooth="yes"/>
      <point x="331" y="557"/>
      <point x="281" y="611"/>
      <point x="251" y="611" type="curve" smooth="yes"/>
      <point x="239" y="611"/>
      <point x="231" y="600"/>
      <point x="223" y="560" type="curve"/>
      <point x="42" y="560" type="line"/>
      <point x="69" y="716"/>
      <point x="130" y="782"/>
      <point x="235" y="782" type="curve" smooth="yes"/>
      <point x="317" y="782"/>
      <point x="364" y="728"/>
      <point x="393" y="728" type="curve" smooth="yes"/>
      <point x="405" y="728"/>
      <point x="413" y="739"/>
      <point x="421" y="779" type="curve"/>
    </contour>
  </outline>
</glyph>
<glyph name="hungarumlaut" format="1">
  <advance width="500"/>
  <unicode hex="02DD"/>
  <outline>
    <contour>
      <point x="675" y="775" type="line"/>
      <point x="453" y="559" type="line"/>
      <point x="292" y="559" type="line"/>
      <point x="428" y="775" type="line"/>
    </contour>
    <contour>
      <point x="410" y="775" type="line"/>
      <point x="188" y="559" type="line"/>
      <point x="27" y="559" type="line"/>
      <point x="163" y="775" type="line"/>
    </contour>
  </outline>
</glyph>
<glyph name="endash" format="1">
  <advance width="564"/>
  <unicode hex="2013"/>
  <outline>
    <contour>
      <point x="528" y="231" type="line"/>
      <point x="24" y="231" type="line"/>
      <point x="66" y="473" type="line"/>
      <point x="570" y="473" type="line"/>
    </contour>
  </outline>
</glyph>
<glyph name="emdash" format="1">
  <advance width="662"/>
  <unicode hex="2014"/>
  <outline>
    <contour>
      <point x="627" y="231" type="line"/>
      <point x="25" y="231" type="line"/>
      <point x="67" y="473" type="line"/>
      <point x="669" y="473" type="line"/>
    </contour>
  </outline>
</glyph>
<glyph name="quoteright" format="1">
  <advance width="360"/>
  <unicode hex="2019"/>
  <unicode hex="02BC"/>
  <outline>
    <contour>
      <point x="425" y="700" type="line"/>
      <point x="226" y="331" type="line"/>
      <point x="36" y="331" type="line"/>
      <point x="119" y="700" type="line"/>
    </contour>
  </outline>
</glyph>
<glyph name="quotesinglbase" format="1">
  <advance width="360"/>
  <unicode hex="201A"/>
  <outline>
    <contour>
      <point x="344" y="277" type="line"/>
      <point x="210" y="-92" type="line"/>
      <point x="20" y="-92" type="line"/>
      <point x="38" y="277" type="line"/>
    </contour>
  </outline>
</glyph>
<glyph name="quotedblleft" format="1">
  <advance width="675"/>
  <unicode hex="201C"/>
  <outline>
    <contour>
      <point x="728" y="700" type="line"/>
      <point x="645" y="331" type="line"/>
      <point x="349" y="331" type="line"/>
      <point x="548" y="700" type="line"/>
    </contour>
    <contour>
      <point x="403" y="700" type="line"/>
      <point x="320" y="331" type="line"/>
      <point x="24" y="331" type="line"/>
      <point x="223" y="700" type="line"/>
    </contour>
  </outline>
</glyph>
<glyph name="quotedblright" format="1">
  <advance width="675"/>
  <unicode hex="201D"/>
  <outline>
    <contour>
      <point x="741" y="700" type="line"/>
      <point x="542" y="331" type="line"/>
      <point x="362" y="331" type="line"/>
      <point x="445" y="700" type="line"/>
    </contour>
    <contour>
      <point x="416" y="700" type="line"/>
      <point x="217" y="331" type="line"/>
      <point x="37" y="331" type="line"/>
      <point x="120" y="700" type="line"/>
    </contour>
  </outline>
</glyph>
<glyph name="quotedblbase" format="1">
  <advance width="675"/>
  <unicode hex="201E"/>
  <outline>
    <contour>
      <point x="659" y="277" type="line"/>
      <point x="525" y="-92" type="line"/>
      <point x="345" y="-92" type="line"/>
      <point x="363" y="277" type="line"/>
    </contour>
    <contour>
      <point x="334" y="277" type="line"/>
      <point x="200" y="-92" type="line"/>
      <point x="20" y="-92" type="line"/>
      <point x="38" y="277" type="line"/>
    </contour>
  </outline>
</glyph>
<glyph name="dagger" format="1">
  <advance width="594"/>
  <unicode hex="2020"/>
  <outline>
    <contour>
      <point x="578" y="313" type="line"/>
      <point x="430" y="313" type="line"/>
      <point x="357" y="-100" type="line"/>
      <point x="109" y="-100" type="line"/>
      <point x="182" y="313" type="line"/>
      <point x="34" y="313" type="line"/>
      <point x="74" y="542" type="line"/>
      <point x="222" y="542" type="line"/>
      <point x="250" y="700" type="line"/>
      <point x="498" y="700" type="line"/>
      <point x="470" y="542" type="line"/>
      <point x="618" y="542" type="line"/>
    </contour>
  </outline>
</glyph>
<glyph name="daggerdbl" format="1">
  <advance width="594"/>
  <unicode hex="2021"/>
  <outline>
    <contour>
      <point x="531" y="48" type="line"/>
      <point x="379" y="48" type="line"/>
      <point x="353" y="-100" type="line"/>
      <point x="113" y="-100" type="line"/>
      <point x="139" y="48" type="line"/>
      <point x="-13" y="48" type="line"/>
      <point x="25" y="262" type="line"/>
      <point x="177" y="262" type="line"/>
      <point x="191" y="338" type="line"/>
      <point x="39" y="338" type="line"/>
      <point x="76" y="552" type="line"/>
      <point x="228" y="552" type="line"/>
      <point x="254" y="700" type="line"/>
      <point x="494" y="700" type="line"/>
      <point x="468" y="552" type="line"/>
      <point x="620" y="552" type="line"/>
      <point x="583" y="338" type="line"/>
      <point x="431" y="338" type="line"/>
      <point x="417" y="262" type="line"/>
      <point x="569" y="262" type="line"/>
    </contour>
  </outline>
</glyph>
<glyph name="ellipsis" format="1">
  <advance width="1060"/>
  <unicode hex="2026"/>
  <outline>
    <contour>
      <point x="847" y="-11" type="curve" smooth="yes"/>
      <point x="757" y="-11"/>
      <point x="701" y="44"/>
      <point x="701" y="121" type="curve" smooth="yes"/>
      <point x="701" y="213"/>
      <point x="764" y="295"/>
      <point x="873" y="295" type="curve" smooth="yes"/>
      <point x="957" y="295"/>
      <point x="1017" y="246"/>
      <point x="1017" y="171" type="curve" smooth="yes"/>
      <point x="1017" y="66"/>
      <point x="946" y="-11"/>
    </contour>
    <contour>
      <point x="497" y="-11" type="curve" smooth="yes"/>
      <point x="407" y="-11"/>
      <point x="351" y="44"/>
      <point x="351" y="121" type="curve" smooth="yes"/>
      <point x="351" y="213"/>
      <point x="414" y="295"/>
      <point x="523" y="295" type="curve" smooth="yes"/>
      <point x="607" y="295"/>
      <point x="667" y="246"/>
      <point x="667" y="171" type="curve" smooth="yes"/>
      <point x="667" y="66"/>
      <point x="596" y="-11"/>
    </contour>
    <contour>
      <point x="147" y="-11" type="curve" smooth="yes"/>
      <point x="57" y="-11"/>
      <point x="1" y="44"/>
      <point x="1" y="121" type="curve" smooth="yes"/>
      <point x="1" y="213"/>
      <point x="64" y="295"/>
      <point x="173" y="295" type="curve" smooth="yes"/>
      <point x="257" y="295"/>
      <point x="317" y="246"/>
      <point x="317" y="171" type="curve" smooth="yes"/>
      <point x="317" y="66"/>
      <point x="246" y="-11"/>
    </contour>
  </outline>
</glyph>
<glyph name="perthousand" format="1">
  <advance width="1577"/>
  <unicode hex="2030"/>
  <outline>
    <contour>
      <point x="257" y="275" type="curve" smooth="yes"/>
      <point x="147" y="275"/>
      <point x="54" y="338"/>
      <point x="54" y="459" type="curve" smooth="yes"/>
      <point x="54" y="592"/>
      <point x="146" y="711"/>
      <point x="294" y="711" type="curve" smooth="yes"/>
      <point x="405" y="711"/>
      <point x="497" y="648"/>
      <point x="497" y="527" type="curve" smooth="yes"/>
      <point x="497" y="394"/>
      <point x="407" y="275"/>
    </contour>
    <contour>
      <point x="964" y="700" type="line"/>
      <point x="391" y="0" type="line"/>
      <point x="178" y="0" type="line"/>
      <point x="751" y="700" type="line"/>
    </contour>
    <contour>
      <point x="1316" y="-11" type="curve" smooth="yes"/>
      <point x="1206" y="-11"/>
      <point x="1113" y="52"/>
      <point x="1113" y="173" type="curve" smooth="yes"/>
      <point x="1113" y="306"/>
      <point x="1205" y="425"/>
      <point x="1353" y="425" type="curve" smooth="yes"/>
      <point x="1464" y="425"/>
      <point x="1556" y="362"/>
      <point x="1556" y="241" type="curve" smooth="yes"/>
      <point x="1556" y="108"/>
      <point x="1466" y="-11"/>
    </contour>
    <contour>
      <point x="848" y="-11" type="curve" smooth="yes"/>
      <point x="738" y="-11"/>
      <point x="645" y="52"/>
      <point x="645" y="173" type="curve" smooth="yes"/>
      <point x="645" y="306"/>
      <point x="737" y="425"/>
      <point x="885" y="425" type="curve" smooth="yes"/>
      <point x="996" y="425"/>
      <point x="1088" y="362"/>
      <point x="1088" y="241" type="curve" smooth="yes"/>
      <point x="1088" y="108"/>
      <point x="998" y="-11"/>
    </contour>
    <contour>
      <point x="234" y="454" type="curve" smooth="yes"/>
      <point x="234" y="424"/>
      <point x="247" y="412"/>
      <point x="265" y="412" type="curve" smooth="yes"/>
      <point x="298" y="412"/>
      <point x="317" y="476"/>
      <point x="317" y="532" type="curve" smooth="yes"/>
      <point x="317" y="562"/>
      <point x="304" y="574"/>
      <point x="286" y="574" type="curve" smooth="yes"/>
      <point x="253" y="574"/>
      <point x="234" y="510"/>
    </contour>
    <contour>
      <point x="1293" y="168" type="curve" smooth="yes"/>
      <point x="1293" y="138"/>
      <point x="1306" y="126"/>
      <point x="1324" y="126" type="curve" smooth="yes"/>
      <point x="1357" y="126"/>
      <point x="1376" y="190"/>
      <point x="1376" y="246" type="curve" smooth="yes"/>
      <point x="1376" y="276"/>
      <point x="1363" y="288"/>
      <point x="1345" y="288" type="curve" smooth="yes"/>
      <point x="1312" y="288"/>
      <point x="1293" y="224"/>
    </contour>
    <contour>
      <point x="825" y="168" type="curve" smooth="yes"/>
      <point x="825" y="138"/>
      <point x="838" y="126"/>
      <point x="856" y="126" type="curve" smooth="yes"/>
      <point x="889" y="126"/>
      <point x="908" y="190"/>
      <point x="908" y="246" type="curve" smooth="yes"/>
      <point x="908" y="276"/>
      <point x="895" y="288"/>
      <point x="877" y="288" type="curve" smooth="yes"/>
      <point x="844" y="288"/>
      <point x="825" y="224"/>
    </contour>
  </outline>
</glyph>
<glyph name="guilsinglleft" format="1">
  <advance width="394"/>
  <unicode hex="2039"/>
  <outline>
    <contour>
      <point x="327" y="0" type="line"/>
      <point x="57" y="0" type="line"/>
      <point x="17" y="263" type="line"/>
      <point x="149" y="525" type="line"/>
      <point x="419" y="525" type="line"/>
      <point x="287" y="263" type="line"/>
    </contour>
  </outline>
</glyph>
<glyph name="guilsinglright" format="1">
  <advance width="394"/>
  <unicode hex="203A"/>
  <outline>
    <contour>
      <point x="377" y="263" type="line"/>
      <point x="245" y="0" type="line"/>
      <point x="-25" y="0" type="line"/>
      <point x="107" y="263" type="line"/>
      <point x="67" y="525" type="line"/>
      <point x="337" y="525" type="line"/>
    </contour>
  </outline>
</glyph>
<glyph name="Euro" format="1">
  <advance width="675"/>
  <unicode hex="20AC"/>
  <outline>
    <contour>
      <point x="288" y="369" type="line"/>
      <point x="286" y="357"/>
      <point x="284" y="346"/>
      <point x="283" y="334" type="curve"/>
      <point x="469" y="334" type="line"/>
      <point x="452" y="236" type="line"/>
      <point x="287" y="236" type="line"/>
      <point x="299" y="196"/>
      <point x="330" y="178"/>
      <point x="380" y="178" type="curve" smooth="yes"/>
      <point x="432" y="178"/>
      <point x="476" y="194"/>
      <point x="555" y="243" type="curve"/>
      <point x="640" y="79" type="line"/>
      <point x="535" y="12"/>
      <point x="456" y="-9"/>
      <point x="367" y="-9" type="curve" smooth="yes"/>
      <point x="178" y="-9"/>
      <point x="30" y="81"/>
      <point x="30" y="283" type="curve" smooth="yes"/>
      <point x="30" y="533"/>
      <point x="173" y="711"/>
      <point x="413" y="711" type="curve" smooth="yes"/>
      <point x="556" y="711"/>
      <point x="650" y="660"/>
      <point x="723" y="573" type="curve"/>
      <point x="576" y="433" type="line"/>
      <point x="525" y="489"/>
      <point x="478" y="523"/>
      <point x="415" y="523" type="curve" smooth="yes"/>
      <point x="375" y="523"/>
      <point x="346" y="500"/>
      <point x="325" y="467" type="curve"/>
      <point x="492" y="467" type="line"/>
      <point x="475" y="369" type="line"/>
    </contour>
  </outline>
</glyph>
<glyph name="uni2117" format="1">
  <advance width="836"/>
  <unicode hex="2117"/>
  <outline>
    <contour>
      <point x="820" y="351" type="curve" smooth="yes"/>
      <point x="820" y="136"/>
      <point x="653" y="-11"/>
      <point x="438" y="-11" type="curve" smooth="yes"/>
      <point x="223" y="-11"/>
      <point x="58" y="134"/>
      <point x="58" y="349" type="curve" smooth="yes"/>
      <point x="58" y="564"/>
      <point x="225" y="711"/>
      <point x="440" y="711" type="curve" smooth="yes"/>
      <point x="655" y="711"/>
      <point x="820" y="566"/>
    </contour>
    <contour>
      <point x="743" y="349" type="curve" smooth="yes"/>
      <point x="743" y="536"/>
      <point x="613" y="640"/>
      <point x="438" y="640" type="curve" smooth="yes"/>
      <point x="263" y="640"/>
      <point x="135" y="538"/>
      <point x="135" y="351" type="curve" smooth="yes"/>
      <point x="135" y="164"/>
      <point x="265" y="60"/>
      <point x="440" y="60" type="curve" smooth="yes"/>
      <point x="615" y="60"/>
      <point x="743" y="162"/>
    </contour>
    <contour>
      <point x="638" y="401" type="curve" smooth="yes"/>
      <point x="638" y="301"/>
      <point x="571" y="258"/>
      <point x="459" y="258" type="curve" smooth="yes"/>
      <point x="441" y="258" type="line"/>
      <point x="441" y="158" type="line"/>
      <point x="287" y="158" type="line"/>
      <point x="287" y="543" type="line"/>
      <point x="459" y="543" type="line" smooth="yes"/>
      <point x="571" y="543"/>
      <point x="638" y="501"/>
    </contour>
    <contour>
      <point x="494" y="401" type="curve" smooth="yes"/>
      <point x="494" y="424"/>
      <point x="480" y="436"/>
      <point x="452" y="436" type="curve" smooth="yes"/>
      <point x="438" y="436" type="line"/>
      <point x="438" y="365" type="line"/>
      <point x="452" y="365" type="line" smooth="yes"/>
      <point x="480" y="365"/>
      <point x="494" y="377"/>
    </contour>
  </outline>
</glyph>
<glyph name="trademark" format="1">
  <advance width="873"/>
  <unicode hex="2122"/>
  <outline>
    <contour>
      <point x="853" y="309" type="line"/>
      <point x="706" y="309" type="line"/>
      <point x="732" y="460" type="line"/>
      <point x="733" y="463"/>
      <point x="734" y="467"/>
      <point x="734" y="471" type="curve"/>
      <point x="726" y="450"/>
      <point x="715" y="428"/>
      <point x="706" y="409" type="curve" smooth="yes"/>
      <point x="658" y="310" type="line"/>
      <point x="606" y="310" type="line"/>
      <point x="593" y="409" type="line" smooth="yes"/>
      <point x="591" y="428"/>
      <point x="589" y="451"/>
      <point x="587" y="471" type="curve"/>
      <point x="587" y="468"/>
      <point x="586" y="463"/>
      <point x="585" y="460" type="curve"/>
      <point x="559" y="309" type="line"/>
      <point x="412" y="309" type="line"/>
      <point x="481" y="700" type="line"/>
      <point x="657" y="700" type="line"/>
      <point x="667" y="630" type="line" smooth="yes"/>
      <point x="672" y="598"/>
      <point x="675" y="571"/>
      <point x="675" y="547" type="curve"/>
      <point x="683" y="571"/>
      <point x="695" y="599"/>
      <point x="711" y="630" type="curve" smooth="yes"/>
      <point x="746" y="700" type="line"/>
      <point x="922" y="700" type="line"/>
    </contour>
    <contour>
      <point x="424" y="571" type="line"/>
      <point x="327" y="571" type="line"/>
      <point x="281" y="309" type="line"/>
      <point x="117" y="309" type="line"/>
      <point x="163" y="571" type="line"/>
      <point x="66" y="571" type="line"/>
      <point x="89" y="700" type="line"/>
      <point x="447" y="700" type="line"/>
    </contour>
  </outline>
</glyph>
<glyph name="arrowup" format="1">
  <advance width="450"/>
  <unicode hex="2191"/>
  <outline>
    <contour>
      <point x="457" y="430" type="curve" smooth="yes"/>
      <point x="442" y="408"/>
      <point x="416" y="404"/>
      <point x="383" y="410" type="curve"/>
      <point x="383" y="0" type="line"/>
      <point x="111" y="0" type="line"/>
      <point x="111" y="410" type="line"/>
      <point x="78" y="404"/>
      <point x="52" y="408"/>
      <point x="37" y="430" type="curve" smooth="yes"/>
      <point x="24" y="449"/>
      <point x="25" y="482"/>
      <point x="55" y="515" type="curve" smooth="yes"/>
      <point x="247" y="725" type="line"/>
      <point x="439" y="515" type="line" smooth="yes"/>
      <point x="470" y="481"/>
      <point x="470" y="449"/>
    </contour>
  </outline>
</glyph>
<glyph name="arrowright" format="1">
  <advance width="660"/>
  <unicode hex="2192"/>
  <outline>
    <contour>
      <point x="675" y="354" type="line"/>
      <point x="465" y="162" type="line" smooth="yes"/>
      <point x="431" y="131"/>
      <point x="399" y="131"/>
      <point x="380" y="144" type="curve" smooth="yes"/>
      <point x="358" y="159"/>
      <point x="354" y="185"/>
      <point x="360" y="218" type="curve"/>
      <point x="55" y="218" type="line"/>
      <point x="55" y="490" type="line"/>
      <point x="360" y="490" type="line"/>
      <point x="354" y="523"/>
      <point x="358" y="549"/>
      <point x="380" y="564" type="curve" smooth="yes"/>
      <point x="399" y="577"/>
      <point x="432" y="576"/>
      <point x="465" y="546" type="curve" smooth="yes"/>
    </contour>
  </outline>
</glyph>
<glyph name="arrowdown" format="1">
  <advance width="450"/>
  <unicode hex="2193"/>
  <outline>
    <contour>
      <point x="435" y="270" type="curve" smooth="yes"/>
      <point x="448" y="251"/>
      <point x="448" y="219"/>
      <point x="417" y="185" type="curve" smooth="yes"/>
      <point x="225" y="-25" type="line"/>
      <point x="33" y="185" type="line" smooth="yes"/>
      <point x="3" y="218"/>
      <point x="2" y="251"/>
      <point x="15" y="270" type="curve" smooth="yes"/>
      <point x="30" y="292"/>
      <point x="56" y="296"/>
      <point x="89" y="290" type="curve"/>
      <point x="89" y="700" type="line"/>
      <point x="361" y="700" type="line"/>
      <point x="361" y="290" type="line"/>
      <point x="394" y="296"/>
      <point x="420" y="292"/>
    </contour>
  </outline>
</glyph>
<glyph name="arrowboth" format="1">
  <advance width="820"/>
  <unicode hex="2194"/>
  <outline>
    <contour>
      <point x="822" y="354" type="line"/>
      <point x="632" y="162" type="line" smooth="yes"/>
      <point x="600" y="130"/>
      <point x="566" y="131"/>
      <point x="547" y="144" type="curve" smooth="yes"/>
      <point x="525" y="159"/>
      <point x="521" y="185"/>
      <point x="527" y="218" type="curve"/>
      <point x="327" y="218" type="line"/>
      <point x="333" y="185"/>
      <point x="329" y="159"/>
      <point x="307" y="144" type="curve" smooth="yes"/>
      <point x="288" y="131"/>
      <point x="254" y="130"/>
      <point x="222" y="162" type="curve" smooth="yes"/>
      <point x="32" y="354" type="line"/>
      <point x="222" y="546" type="line" smooth="yes"/>
      <point x="254" y="578"/>
      <point x="288" y="577"/>
      <point x="307" y="564" type="curve" smooth="yes"/>
      <point x="329" y="549"/>
      <point x="333" y="523"/>
      <point x="327" y="490" type="curve"/>
      <point x="527" y="490" type="line"/>
      <point x="521" y="523"/>
      <point x="525" y="549"/>
      <point x="547" y="564" type="curve" smooth="yes"/>
      <point x="566" y="577"/>
      <point x="600" y="578"/>
      <point x="632" y="546" type="curve" smooth="yes"/>
    </contour>
  </outline>
</glyph>
<glyph name="arrowupdn" format="1">
  <advance width="450"/>
  <unicode hex="2195"/>
  <outline>
    <contour>
      <point x="449" y="250" type="curve" smooth="yes"/>
      <point x="462" y="231"/>
      <point x="463" y="197"/>
      <point x="431" y="165" type="curve" smooth="yes"/>
      <point x="239" y="-25" type="line"/>
      <point x="47" y="165" type="line" smooth="yes"/>
      <point x="15" y="197"/>
      <point x="16" y="231"/>
      <point x="29" y="250" type="curve" smooth="yes"/>
      <point x="44" y="272"/>
      <point x="70" y="276"/>
      <point x="103" y="270" type="curve"/>
      <point x="103" y="430" type="line"/>
      <point x="70" y="424"/>
      <point x="44" y="428"/>
      <point x="29" y="450" type="curve" smooth="yes"/>
      <point x="16" y="469"/>
      <point x="15" y="503"/>
      <point x="47" y="535" type="curve" smooth="yes"/>
      <point x="239" y="725" type="line"/>
      <point x="431" y="535" type="line" smooth="yes"/>
      <point x="463" y="503"/>
      <point x="462" y="469"/>
      <point x="449" y="450" type="curve" smooth="yes"/>
      <point x="434" y="428"/>
      <point x="408" y="424"/>
      <point x="375" y="430" type="curve"/>
      <point x="375" y="270" type="line"/>
      <point x="408" y="276"/>
      <point x="434" y="272"/>
    </contour>
  </outline>
</glyph>
<glyph name="radical" format="1">
  <advance width="716"/>
  <unicode hex="221A"/>
  <outline>
    <contour>
      <point x="795" y="700" type="line"/>
      <point x="407" y="0" type="line"/>
      <point x="144" y="0" type="line"/>
      <point x="12" y="368" type="line"/>
      <point x="286" y="368" type="line"/>
      <point x="297" y="317" type="line" smooth="yes"/>
      <point x="303" y="289"/>
      <point x="311" y="260"/>
      <point x="310" y="235" type="curve"/>
      <point x="319" y="263"/>
      <point x="331" y="299"/>
      <point x="346" y="330" type="curve" smooth="yes"/>
      <point x="522" y="700" type="line"/>
    </contour>
  </outline>
</glyph>
<glyph name="apple" format="1">
  <advance width="826"/>
  <unicode hex="F8FF"/>
  <outline>
    <contour>
      <point x="826" y="350" type="line"/>
      <point x="670" y="215" type="line" smooth="yes"/>
      <point x="644" y="193"/>
      <point x="621" y="192"/>
      <point x="607" y="202" type="curve" smooth="yes"/>
      <point x="591" y="213"/>
      <point x="588" y="228"/>
      <point x="593" y="248" type="curve" smooth="yes"/>
      <point x="597" y="264" type="line"/>
      <point x="514" y="264" type="line"/>
      <point x="514" y="204" type="line"/>
      <point x="530" y="208" type="line" smooth="yes"/>
      <point x="550" y="213"/>
      <point x="565" y="210"/>
      <point x="576" y="194" type="curve" smooth="yes"/>
      <point x="586" y="180"/>
      <point x="585" y="157"/>
      <point x="563" y="131" type="curve" smooth="yes"/>
      <point x="428" y="-25" type="line"/>
      <point x="293" y="131" type="line" smooth="yes"/>
      <point x="271" y="157"/>
      <point x="270" y="180"/>
      <point x="280" y="194" type="curve" smooth="yes"/>
      <point x="291" y="210"/>
      <point x="306" y="213"/>
      <point x="326" y="208" type="curve" smooth="yes"/>
      <point x="342" y="204" type="line"/>
      <point x="342" y="264" type="line"/>
      <point x="259" y="264" type="line"/>
      <point x="263" y="248" type="line" smooth="yes"/>
      <point x="268" y="228"/>
      <point x="265" y="213"/>
      <point x="249" y="202" type="curve" smooth="yes"/>
      <point x="235" y="192"/>
      <point x="212" y="193"/>
      <point x="186" y="215" type="curve" smooth="yes"/>
      <point x="30" y="350" type="line"/>
      <point x="186" y="485" type="line" smooth="yes"/>
      <point x="212" y="507"/>
      <point x="235" y="508"/>
      <point x="249" y="498" type="curve" smooth="yes"/>
      <point x="265" y="487"/>
      <point x="268" y="472"/>
      <point x="263" y="452" type="curve" smooth="yes"/>
      <point x="259" y="436" type="line"/>
      <point x="342" y="436" type="line"/>
      <point x="342" y="496" type="line"/>
      <point x="326" y="492" type="line" smooth="yes"/>
      <point x="306" y="487"/>
      <point x="291" y="490"/>
      <point x="280" y="506" type="curve" smooth="yes"/>
      <point x="270" y="520"/>
      <point x="271" y="543"/>
      <point x="293" y="569" type="curve" smooth="yes"/>
      <point x="428" y="725" type="line"/>
      <point x="563" y="569" type="line" smooth="yes"/>
      <point x="585" y="543"/>
      <point x="586" y="520"/>
      <point x="576" y="506" type="curve" smooth="yes"/>
      <point x="565" y="490"/>
      <point x="550" y="487"/>
      <point x="530" y="492" type="curve" smooth="yes"/>
      <point x="514" y="496" type="line"/>
      <point x="514" y="436" type="line"/>
      <point x="597" y="436" type="line"/>
      <point x="593" y="452" type="line" smooth="yes"/>
      <point x="588" y="472"/>
      <point x="591" y="487"/>
      <point x="607" y="498" type="curve" smooth="yes"/>
      <point x="621" y="508"/>
      <point x="644" y="507"/>
      <point x="670" y="485" type="curve" smooth="yes"/>
    </contour>
  </outline>
</glyph>
<glyph name="fi" format="1">
  <advance width="706"/>
  <unicode hex="FB01"/>
  <outline>
    <contour>
      <point x="618" y="557" type="curve" smooth="yes"/>
      <point x="536" y="557"/>
      <point x="472" y="588"/>
      <point x="472" y="647" type="curve" smooth="yes"/>
      <point x="472" y="709"/>
      <point x="522" y="755"/>
      <point x="613" y="755" type="curve" smooth="yes"/>
      <point x="696" y="755"/>
      <point x="758" y="719"/>
      <point x="758" y="664" type="curve" smooth="yes"/>
      <point x="758" y="598"/>
      <point x="699" y="557"/>
    </contour>
    <contour>
      <point x="435" y="562" type="line"/>
      <point x="418" y="571"/>
      <point x="405" y="575"/>
      <point x="390" y="575" type="curve" smooth="yes"/>
      <point x="366" y="575"/>
      <point x="359" y="568"/>
      <point x="353" y="543" type="curve" smooth="yes"/>
      <point x="349" y="525" type="line"/>
      <point x="421" y="525" type="line"/>
      <point x="392" y="361" type="line"/>
      <point x="326" y="361" type="line"/>
      <point x="262" y="0" type="line"/>
      <point x="12" y="0" type="line"/>
      <point x="76" y="361" type="line"/>
      <point x="24" y="361" type="line"/>
      <point x="53" y="525" type="line"/>
      <point x="105" y="525" type="line"/>
      <point x="116" y="584" type="line" smooth="yes"/>
      <point x="137" y="695"/>
      <point x="199" y="736"/>
      <point x="299" y="736" type="curve" smooth="yes"/>
      <point x="366" y="736"/>
      <point x="414" y="724"/>
      <point x="460" y="704" type="curve"/>
    </contour>
    <contour>
      <point x="629" y="0" type="line"/>
      <point x="369" y="0" type="line"/>
      <point x="462" y="525" type="line"/>
      <point x="722" y="525" type="line"/>
    </contour>
  </outline>
</glyph>
<glyph name="a.salt" format="1">
  <advance width="621"/>
  <outline>
    <contour>
      <point x="252" y="536" type="curve" smooth="yes"/>
      <point x="305" y="536"/>
      <point x="340" y="516"/>
      <point x="370" y="490" type="curve"/>
      <point x="376" y="525" type="line"/>
      <point x="636" y="525" type="line"/>
      <point x="544" y="0" type="line"/>
      <point x="284" y="0" type="line"/>
      <point x="290" y="35" type="line"/>
      <point x="267" y="15"/>
      <point x="229" y="-11"/>
      <point x="173" y="-11" type="curve" smooth="yes"/>
      <point x="88" y="-11"/>
      <point x="10" y="55"/>
      <point x="10" y="194" type="curve" smooth="yes"/>
      <point x="10" y="396"/>
      <point x="119" y="536"/>
    </contour>
    <contour>
      <point x="254" y="208" type="curve" smooth="yes"/>
      <point x="254" y="172"/>
      <point x="269" y="159"/>
      <point x="295" y="159" type="curve" smooth="yes"/>
      <point x="301" y="159"/>
      <point x="308" y="160"/>
      <point x="313" y="163" type="curve"/>
      <point x="348" y="359" type="line"/>
      <point x="340" y="363"/>
      <point x="329" y="366"/>
      <point x="319" y="366" type="curve" smooth="yes"/>
      <point x="274" y="366"/>
      <point x="254" y="271"/>
    </contour>
  </outline>
</glyph>
<glyph name="bullet" format="1">
  <advance width="635"/>
  <outline>
    <contour>
      <point x="626" y="378" type="curve" smooth="yes"/>
      <point x="626" y="221"/>
      <point x="504" y="79"/>
      <point x="323" y="79" type="curve" smooth="yes"/>
      <point x="174" y="79"/>
      <point x="46" y="189"/>
      <point x="46" y="356" type="curve" smooth="yes"/>
      <point x="46" y="513"/>
      <point x="168" y="655"/>
      <point x="349" y="655" type="curve" smooth="yes"/>
      <point x="498" y="655"/>
      <point x="626" y="545"/>
    </contour>
  </outline>
</glyph>
<glyph name="macron" format="1">
  <advance width="500"/>
  <outline>
    <contour>
      <point x="516" y="562" type="line"/>
      <point x="90" y="562" type="line"/>
      <point x="120" y="735" type="line"/>
      <point x="546" y="735" type="line"/>
    </contour>
  </outline>
</glyph>
<glyph name="registered" format="1">
  <advance width="836"/>
  <outline>
    <contour>
      <point x="820" y="351" type="curve" smooth="yes"/>
      <point x="820" y="136"/>
      <point x="653" y="-11"/>
      <point x="438" y="-11" type="curve" smooth="yes"/>
      <point x="223" y="-11"/>
      <point x="58" y="134"/>
      <point x="58" y="349" type="curve" smooth="yes"/>
      <point x="58" y="564"/>
      <point x="225" y="711"/>
      <point x="440" y="711" type="curve" smooth="yes"/>
      <point x="655" y="711"/>
      <point x="820" y="566"/>
    </contour>
    <contour>
      <point x="743" y="349" type="curve" smooth="yes"/>
      <point x="743" y="536"/>
      <point x="613" y="640"/>
      <point x="438" y="640" type="curve" smooth="yes"/>
      <point x="263" y="640"/>
      <point x="135" y="538"/>
      <point x="135" y="351" type="curve" smooth="yes"/>
      <point x="135" y="164"/>
      <point x="265" y="60"/>
      <point x="440" y="60" type="curve" smooth="yes"/>
      <point x="615" y="60"/>
      <point x="743" y="162"/>
    </contour>
    <contour>
      <point x="641" y="167" type="line"/>
      <point x="475" y="167" type="line"/>
      <point x="420" y="286" type="line"/>
      <point x="419" y="286" type="line"/>
      <point x="419" y="167" type="line"/>
      <point x="268" y="167" type="line"/>
      <point x="268" y="552" type="line"/>
      <point x="463" y="552" type="line" smooth="yes"/>
      <point x="551" y="552"/>
      <point x="624" y="525"/>
      <point x="624" y="423" type="curve" smooth="yes"/>
      <point x="624" y="361"/>
      <point x="594" y="331"/>
      <point x="560" y="310" type="curve"/>
    </contour>
    <contour>
      <point x="476" y="417" type="curve" smooth="yes"/>
      <point x="476" y="440"/>
      <point x="462" y="451"/>
      <point x="434" y="451" type="curve" smooth="yes"/>
      <point x="419" y="451" type="line"/>
      <point x="419" y="384" type="line"/>
      <point x="434" y="384" type="line" smooth="yes"/>
      <point x="462" y="384"/>
      <point x="476" y="395"/>
    </contour>
  </outline>
</glyph>
